<mxfile host="app.diagrams.net" agent="Mozilla/5.0 (Windows NT 10.0; Win64; x64) AppleWebKit/537.36 (KHTML, like Gecko) Chrome/136.0.0.0 Safari/537.36" version="27.1.1" pages="2">
  <diagram id="R2lEEEUBdFMjLlhIrx00" name="Page-1">
    <mxGraphModel dx="2484" dy="2028" grid="0" gridSize="10" guides="1" tooltips="1" connect="1" arrows="1" fold="1" page="0" pageScale="1" pageWidth="1100" pageHeight="850" math="0" shadow="0" extFonts="Permanent Marker^https://fonts.googleapis.com/css?family=Permanent+Marker">
      <root>
        <mxCell id="0" />
        <mxCell id="1" parent="0" />
        <mxCell id="TY1T0JL2RWbXBVbh2Ho9-1" value="Users" style="shape=table;startSize=30;container=1;collapsible=1;childLayout=tableLayout;fixedRows=1;rowLines=0;fontStyle=0;align=center;resizeLast=1;fontSize=13;spacing=2;" parent="1" vertex="1">
          <mxGeometry x="-265.08" y="-347" width="250" height="270" as="geometry" />
        </mxCell>
        <mxCell id="TY1T0JL2RWbXBVbh2Ho9-2" value="" style="shape=partialRectangle;collapsible=0;dropTarget=0;pointerEvents=0;fillColor=none;points=[[0,0.5],[1,0.5]];portConstraint=eastwest;top=0;left=0;right=0;bottom=1;fontSize=13;fontStyle=0" parent="TY1T0JL2RWbXBVbh2Ho9-1" vertex="1">
          <mxGeometry y="30" width="250" height="30" as="geometry" />
        </mxCell>
        <mxCell id="TY1T0JL2RWbXBVbh2Ho9-3" value="PK" style="shape=partialRectangle;overflow=hidden;connectable=0;fillColor=none;top=0;left=0;bottom=0;right=0;fontStyle=0;fontSize=14;" parent="TY1T0JL2RWbXBVbh2Ho9-2" vertex="1">
          <mxGeometry width="30" height="30" as="geometry">
            <mxRectangle width="30" height="30" as="alternateBounds" />
          </mxGeometry>
        </mxCell>
        <mxCell id="TY1T0JL2RWbXBVbh2Ho9-4" value="ID" style="shape=partialRectangle;overflow=hidden;connectable=0;fillColor=none;top=0;left=0;bottom=0;right=0;align=left;spacingLeft=6;fontStyle=4;fontSize=14;" parent="TY1T0JL2RWbXBVbh2Ho9-2" vertex="1">
          <mxGeometry x="30" width="220" height="30" as="geometry">
            <mxRectangle width="220" height="30" as="alternateBounds" />
          </mxGeometry>
        </mxCell>
        <mxCell id="TY1T0JL2RWbXBVbh2Ho9-24" value="" style="shape=partialRectangle;collapsible=0;dropTarget=0;pointerEvents=0;fillColor=none;points=[[0,0.5],[1,0.5]];portConstraint=eastwest;top=0;left=0;right=0;bottom=0;fontSize=13;fontStyle=0" parent="TY1T0JL2RWbXBVbh2Ho9-1" vertex="1">
          <mxGeometry y="60" width="250" height="30" as="geometry" />
        </mxCell>
        <mxCell id="TY1T0JL2RWbXBVbh2Ho9-25" value="FK" style="shape=partialRectangle;overflow=hidden;connectable=0;fillColor=none;top=0;left=0;bottom=0;right=0;fontSize=14;fontStyle=0" parent="TY1T0JL2RWbXBVbh2Ho9-24" vertex="1">
          <mxGeometry width="30" height="30" as="geometry">
            <mxRectangle width="30" height="30" as="alternateBounds" />
          </mxGeometry>
        </mxCell>
        <mxCell id="TY1T0JL2RWbXBVbh2Ho9-26" value="RoleId" style="shape=partialRectangle;overflow=hidden;connectable=0;fillColor=none;top=0;left=0;bottom=0;right=0;align=left;spacingLeft=6;fontSize=14;fontStyle=0" parent="TY1T0JL2RWbXBVbh2Ho9-24" vertex="1">
          <mxGeometry x="30" width="220" height="30" as="geometry">
            <mxRectangle width="220" height="30" as="alternateBounds" />
          </mxGeometry>
        </mxCell>
        <mxCell id="TY1T0JL2RWbXBVbh2Ho9-5" value="" style="shape=partialRectangle;collapsible=0;dropTarget=0;pointerEvents=0;fillColor=none;points=[[0,0.5],[1,0.5]];portConstraint=eastwest;top=0;left=0;right=0;bottom=0;fontSize=13;fontStyle=0" parent="TY1T0JL2RWbXBVbh2Ho9-1" vertex="1">
          <mxGeometry y="90" width="250" height="30" as="geometry" />
        </mxCell>
        <mxCell id="TY1T0JL2RWbXBVbh2Ho9-6" value="" style="shape=partialRectangle;overflow=hidden;connectable=0;fillColor=none;top=0;left=0;bottom=0;right=0;fontSize=14;fontStyle=0" parent="TY1T0JL2RWbXBVbh2Ho9-5" vertex="1">
          <mxGeometry width="30" height="30" as="geometry">
            <mxRectangle width="30" height="30" as="alternateBounds" />
          </mxGeometry>
        </mxCell>
        <mxCell id="TY1T0JL2RWbXBVbh2Ho9-7" value="Password" style="shape=partialRectangle;overflow=hidden;connectable=0;fillColor=none;top=0;left=0;bottom=0;right=0;align=left;spacingLeft=6;fontSize=14;fontStyle=0" parent="TY1T0JL2RWbXBVbh2Ho9-5" vertex="1">
          <mxGeometry x="30" width="220" height="30" as="geometry">
            <mxRectangle width="220" height="30" as="alternateBounds" />
          </mxGeometry>
        </mxCell>
        <mxCell id="TQ3iEzF1nXxN9szr9kvA-1" value="" style="shape=partialRectangle;collapsible=0;dropTarget=0;pointerEvents=0;fillColor=none;points=[[0,0.5],[1,0.5]];portConstraint=eastwest;top=0;left=0;right=0;bottom=0;fontSize=13;fontStyle=0" parent="TY1T0JL2RWbXBVbh2Ho9-1" vertex="1">
          <mxGeometry y="120" width="250" height="30" as="geometry" />
        </mxCell>
        <mxCell id="TQ3iEzF1nXxN9szr9kvA-2" value="" style="shape=partialRectangle;overflow=hidden;connectable=0;fillColor=none;top=0;left=0;bottom=0;right=0;fontSize=14;fontStyle=0" parent="TQ3iEzF1nXxN9szr9kvA-1" vertex="1">
          <mxGeometry width="30" height="30" as="geometry">
            <mxRectangle width="30" height="30" as="alternateBounds" />
          </mxGeometry>
        </mxCell>
        <mxCell id="TQ3iEzF1nXxN9szr9kvA-3" value="Email" style="shape=partialRectangle;overflow=hidden;connectable=0;fillColor=none;top=0;left=0;bottom=0;right=0;align=left;spacingLeft=6;fontSize=14;fontStyle=0" parent="TQ3iEzF1nXxN9szr9kvA-1" vertex="1">
          <mxGeometry x="30" width="220" height="30" as="geometry">
            <mxRectangle width="220" height="30" as="alternateBounds" />
          </mxGeometry>
        </mxCell>
        <mxCell id="TY1T0JL2RWbXBVbh2Ho9-71" value="" style="shape=partialRectangle;collapsible=0;dropTarget=0;pointerEvents=0;fillColor=none;points=[[0,0.5],[1,0.5]];portConstraint=eastwest;top=0;left=0;right=0;bottom=0;fontSize=13;fontStyle=0" parent="TY1T0JL2RWbXBVbh2Ho9-1" vertex="1">
          <mxGeometry y="150" width="250" height="30" as="geometry" />
        </mxCell>
        <mxCell id="TY1T0JL2RWbXBVbh2Ho9-72" value="" style="shape=partialRectangle;overflow=hidden;connectable=0;fillColor=none;top=0;left=0;bottom=0;right=0;fontSize=14;fontStyle=0" parent="TY1T0JL2RWbXBVbh2Ho9-71" vertex="1">
          <mxGeometry width="30" height="30" as="geometry">
            <mxRectangle width="30" height="30" as="alternateBounds" />
          </mxGeometry>
        </mxCell>
        <mxCell id="TY1T0JL2RWbXBVbh2Ho9-73" value="BlockedStatus" style="shape=partialRectangle;overflow=hidden;connectable=0;fillColor=none;top=0;left=0;bottom=0;right=0;align=left;spacingLeft=6;fontSize=14;fontStyle=0" parent="TY1T0JL2RWbXBVbh2Ho9-71" vertex="1">
          <mxGeometry x="30" width="220" height="30" as="geometry">
            <mxRectangle width="220" height="30" as="alternateBounds" />
          </mxGeometry>
        </mxCell>
        <mxCell id="TY1T0JL2RWbXBVbh2Ho9-74" value="" style="shape=partialRectangle;collapsible=0;dropTarget=0;pointerEvents=0;fillColor=none;points=[[0,0.5],[1,0.5]];portConstraint=eastwest;top=0;left=0;right=0;bottom=0;fontSize=13;fontStyle=0" parent="TY1T0JL2RWbXBVbh2Ho9-1" vertex="1">
          <mxGeometry y="180" width="250" height="30" as="geometry" />
        </mxCell>
        <mxCell id="TY1T0JL2RWbXBVbh2Ho9-75" value="" style="shape=partialRectangle;overflow=hidden;connectable=0;fillColor=none;top=0;left=0;bottom=0;right=0;fontSize=14;fontStyle=0" parent="TY1T0JL2RWbXBVbh2Ho9-74" vertex="1">
          <mxGeometry width="30" height="30" as="geometry">
            <mxRectangle width="30" height="30" as="alternateBounds" />
          </mxGeometry>
        </mxCell>
        <mxCell id="TY1T0JL2RWbXBVbh2Ho9-76" value="Name" style="shape=partialRectangle;overflow=hidden;connectable=0;fillColor=none;top=0;left=0;bottom=0;right=0;align=left;spacingLeft=6;fontSize=14;fontStyle=0" parent="TY1T0JL2RWbXBVbh2Ho9-74" vertex="1">
          <mxGeometry x="30" width="220" height="30" as="geometry">
            <mxRectangle width="220" height="30" as="alternateBounds" />
          </mxGeometry>
        </mxCell>
        <mxCell id="TY1T0JL2RWbXBVbh2Ho9-77" value="" style="shape=partialRectangle;collapsible=0;dropTarget=0;pointerEvents=0;fillColor=none;points=[[0,0.5],[1,0.5]];portConstraint=eastwest;top=0;left=0;right=0;bottom=0;fontSize=13;fontStyle=0" parent="TY1T0JL2RWbXBVbh2Ho9-1" vertex="1">
          <mxGeometry y="210" width="250" height="30" as="geometry" />
        </mxCell>
        <mxCell id="TY1T0JL2RWbXBVbh2Ho9-78" value="" style="shape=partialRectangle;overflow=hidden;connectable=0;fillColor=none;top=0;left=0;bottom=0;right=0;fontSize=14;fontStyle=0" parent="TY1T0JL2RWbXBVbh2Ho9-77" vertex="1">
          <mxGeometry width="30" height="30" as="geometry">
            <mxRectangle width="30" height="30" as="alternateBounds" />
          </mxGeometry>
        </mxCell>
        <mxCell id="TY1T0JL2RWbXBVbh2Ho9-79" value="Surname" style="shape=partialRectangle;overflow=hidden;connectable=0;fillColor=none;top=0;left=0;bottom=0;right=0;align=left;spacingLeft=6;fontSize=14;fontStyle=0" parent="TY1T0JL2RWbXBVbh2Ho9-77" vertex="1">
          <mxGeometry x="30" width="220" height="30" as="geometry">
            <mxRectangle width="220" height="30" as="alternateBounds" />
          </mxGeometry>
        </mxCell>
        <mxCell id="TY1T0JL2RWbXBVbh2Ho9-80" value="" style="shape=partialRectangle;collapsible=0;dropTarget=0;pointerEvents=0;fillColor=none;points=[[0,0.5],[1,0.5]];portConstraint=eastwest;top=0;left=0;right=0;bottom=0;fontSize=13;fontStyle=0" parent="TY1T0JL2RWbXBVbh2Ho9-1" vertex="1">
          <mxGeometry y="240" width="250" height="30" as="geometry" />
        </mxCell>
        <mxCell id="TY1T0JL2RWbXBVbh2Ho9-81" value="" style="shape=partialRectangle;overflow=hidden;connectable=0;fillColor=none;top=0;left=0;bottom=0;right=0;fontSize=14;fontStyle=0" parent="TY1T0JL2RWbXBVbh2Ho9-80" vertex="1">
          <mxGeometry width="30" height="30" as="geometry">
            <mxRectangle width="30" height="30" as="alternateBounds" />
          </mxGeometry>
        </mxCell>
        <mxCell id="TY1T0JL2RWbXBVbh2Ho9-82" value="PhoneNumber" style="shape=partialRectangle;overflow=hidden;connectable=0;fillColor=none;top=0;left=0;bottom=0;right=0;align=left;spacingLeft=6;fontSize=14;fontStyle=0" parent="TY1T0JL2RWbXBVbh2Ho9-80" vertex="1">
          <mxGeometry x="30" width="220" height="30" as="geometry">
            <mxRectangle width="220" height="30" as="alternateBounds" />
          </mxGeometry>
        </mxCell>
        <mxCell id="TY1T0JL2RWbXBVbh2Ho9-83" value="Tours" style="shape=table;startSize=30;container=1;collapsible=1;childLayout=tableLayout;fixedRows=1;rowLines=0;fontStyle=0;align=center;resizeLast=1;fontSize=14;spacing=2;" parent="1" vertex="1">
          <mxGeometry x="442" y="-721" width="250" height="180" as="geometry">
            <mxRectangle x="446" y="-517" width="58" height="30" as="alternateBounds" />
          </mxGeometry>
        </mxCell>
        <mxCell id="TY1T0JL2RWbXBVbh2Ho9-84" value="" style="shape=partialRectangle;collapsible=0;dropTarget=0;pointerEvents=0;fillColor=none;points=[[0,0.5],[1,0.5]];portConstraint=eastwest;top=0;left=0;right=0;bottom=1;fontSize=14;fontStyle=0" parent="TY1T0JL2RWbXBVbh2Ho9-83" vertex="1">
          <mxGeometry y="30" width="250" height="30" as="geometry" />
        </mxCell>
        <mxCell id="TY1T0JL2RWbXBVbh2Ho9-85" value="PK" style="shape=partialRectangle;overflow=hidden;connectable=0;fillColor=none;top=0;left=0;bottom=0;right=0;fontStyle=0;fontSize=14;" parent="TY1T0JL2RWbXBVbh2Ho9-84" vertex="1">
          <mxGeometry width="29.117589613970665" height="30" as="geometry">
            <mxRectangle width="29.117589613970665" height="30" as="alternateBounds" />
          </mxGeometry>
        </mxCell>
        <mxCell id="TY1T0JL2RWbXBVbh2Ho9-86" value="ID" style="shape=partialRectangle;overflow=hidden;connectable=0;fillColor=none;top=0;left=0;bottom=0;right=0;align=left;spacingLeft=6;fontStyle=4;fontSize=14;" parent="TY1T0JL2RWbXBVbh2Ho9-84" vertex="1">
          <mxGeometry x="29.117589613970665" width="220.88241038602933" height="30" as="geometry">
            <mxRectangle width="220.88241038602933" height="30" as="alternateBounds" />
          </mxGeometry>
        </mxCell>
        <mxCell id="TY1T0JL2RWbXBVbh2Ho9-87" value="" style="shape=partialRectangle;collapsible=0;dropTarget=0;pointerEvents=0;fillColor=none;points=[[0,0.5],[1,0.5]];portConstraint=eastwest;top=0;left=0;right=0;bottom=0;fontSize=14;fontStyle=0" parent="TY1T0JL2RWbXBVbh2Ho9-83" vertex="1">
          <mxGeometry y="60" width="250" height="30" as="geometry" />
        </mxCell>
        <mxCell id="TY1T0JL2RWbXBVbh2Ho9-88" value="FK" style="shape=partialRectangle;overflow=hidden;connectable=0;fillColor=none;top=0;left=0;bottom=0;right=0;fontSize=14;fontStyle=0" parent="TY1T0JL2RWbXBVbh2Ho9-87" vertex="1">
          <mxGeometry width="29.117589613970665" height="30" as="geometry">
            <mxRectangle width="29.117589613970665" height="30" as="alternateBounds" />
          </mxGeometry>
        </mxCell>
        <mxCell id="TY1T0JL2RWbXBVbh2Ho9-89" value="TourTypeId" style="shape=partialRectangle;overflow=hidden;connectable=0;fillColor=none;top=0;left=0;bottom=0;right=0;align=left;spacingLeft=6;fontSize=14;fontStyle=0" parent="TY1T0JL2RWbXBVbh2Ho9-87" vertex="1">
          <mxGeometry x="29.117589613970665" width="220.88241038602933" height="30" as="geometry">
            <mxRectangle width="220.88241038602933" height="30" as="alternateBounds" />
          </mxGeometry>
        </mxCell>
        <mxCell id="TQ3iEzF1nXxN9szr9kvA-22" value="" style="shape=partialRectangle;collapsible=0;dropTarget=0;pointerEvents=0;fillColor=none;points=[[0,0.5],[1,0.5]];portConstraint=eastwest;top=0;left=0;right=0;bottom=0;fontSize=14;fontStyle=0" parent="TY1T0JL2RWbXBVbh2Ho9-83" vertex="1">
          <mxGeometry y="90" width="250" height="30" as="geometry" />
        </mxCell>
        <mxCell id="TQ3iEzF1nXxN9szr9kvA-23" value="FK" style="shape=partialRectangle;overflow=hidden;connectable=0;fillColor=none;top=0;left=0;bottom=0;right=0;fontSize=14;fontStyle=0" parent="TQ3iEzF1nXxN9szr9kvA-22" vertex="1">
          <mxGeometry width="29.117589613970665" height="30" as="geometry">
            <mxRectangle width="29.117589613970665" height="30" as="alternateBounds" />
          </mxGeometry>
        </mxCell>
        <mxCell id="TQ3iEzF1nXxN9szr9kvA-24" value="HotelId" style="shape=partialRectangle;overflow=hidden;connectable=0;fillColor=none;top=0;left=0;bottom=0;right=0;align=left;spacingLeft=6;fontSize=14;fontStyle=0" parent="TQ3iEzF1nXxN9szr9kvA-22" vertex="1">
          <mxGeometry x="29.117589613970665" width="220.88241038602933" height="30" as="geometry">
            <mxRectangle width="220.88241038602933" height="30" as="alternateBounds" />
          </mxGeometry>
        </mxCell>
        <mxCell id="TY1T0JL2RWbXBVbh2Ho9-93" value="" style="shape=partialRectangle;collapsible=0;dropTarget=0;pointerEvents=0;fillColor=none;points=[[0,0.5],[1,0.5]];portConstraint=eastwest;top=0;left=0;right=0;bottom=0;fontSize=14;fontStyle=0" parent="TY1T0JL2RWbXBVbh2Ho9-83" vertex="1">
          <mxGeometry y="120" width="250" height="30" as="geometry" />
        </mxCell>
        <mxCell id="TY1T0JL2RWbXBVbh2Ho9-94" value="" style="shape=partialRectangle;overflow=hidden;connectable=0;fillColor=none;top=0;left=0;bottom=0;right=0;fontSize=14;fontStyle=0" parent="TY1T0JL2RWbXBVbh2Ho9-93" vertex="1">
          <mxGeometry width="29.117589613970665" height="30" as="geometry">
            <mxRectangle width="29.117589613970665" height="30" as="alternateBounds" />
          </mxGeometry>
        </mxCell>
        <mxCell id="TY1T0JL2RWbXBVbh2Ho9-95" value="Name" style="shape=partialRectangle;overflow=hidden;connectable=0;fillColor=none;top=0;left=0;bottom=0;right=0;align=left;spacingLeft=6;fontSize=14;fontStyle=0" parent="TY1T0JL2RWbXBVbh2Ho9-93" vertex="1">
          <mxGeometry x="29.117589613970665" width="220.88241038602933" height="30" as="geometry">
            <mxRectangle width="220.88241038602933" height="30" as="alternateBounds" />
          </mxGeometry>
        </mxCell>
        <mxCell id="TQ3iEzF1nXxN9szr9kvA-25" value="" style="shape=partialRectangle;collapsible=0;dropTarget=0;pointerEvents=0;fillColor=none;points=[[0,0.5],[1,0.5]];portConstraint=eastwest;top=0;left=0;right=0;bottom=0;fontSize=14;fontStyle=0" parent="TY1T0JL2RWbXBVbh2Ho9-83" vertex="1">
          <mxGeometry y="150" width="250" height="30" as="geometry" />
        </mxCell>
        <mxCell id="TQ3iEzF1nXxN9szr9kvA-26" value="" style="shape=partialRectangle;overflow=hidden;connectable=0;fillColor=none;top=0;left=0;bottom=0;right=0;fontSize=14;fontStyle=0" parent="TQ3iEzF1nXxN9szr9kvA-25" vertex="1">
          <mxGeometry width="29.117589613970665" height="30" as="geometry">
            <mxRectangle width="29.117589613970665" height="30" as="alternateBounds" />
          </mxGeometry>
        </mxCell>
        <mxCell id="TQ3iEzF1nXxN9szr9kvA-27" value="MainDescription" style="shape=partialRectangle;overflow=hidden;connectable=0;fillColor=none;top=0;left=0;bottom=0;right=0;align=left;spacingLeft=6;fontSize=14;fontStyle=0" parent="TQ3iEzF1nXxN9szr9kvA-25" vertex="1">
          <mxGeometry x="29.117589613970665" width="220.88241038602933" height="30" as="geometry">
            <mxRectangle width="220.88241038602933" height="30" as="alternateBounds" />
          </mxGeometry>
        </mxCell>
        <mxCell id="TY1T0JL2RWbXBVbh2Ho9-108" value="Bookings" style="shape=table;startSize=30;container=1;collapsible=1;childLayout=tableLayout;fixedRows=1;rowLines=0;fontStyle=0;align=center;resizeLast=1;fontSize=14;spacing=2;" parent="1" vertex="1">
          <mxGeometry x="91" y="-246" width="250" height="270" as="geometry" />
        </mxCell>
        <mxCell id="TY1T0JL2RWbXBVbh2Ho9-109" value="" style="shape=partialRectangle;collapsible=0;dropTarget=0;pointerEvents=0;fillColor=none;points=[[0,0.5],[1,0.5]];portConstraint=eastwest;top=0;left=0;right=0;bottom=1;fontSize=14;fontStyle=0" parent="TY1T0JL2RWbXBVbh2Ho9-108" vertex="1">
          <mxGeometry y="30" width="250" height="30" as="geometry" />
        </mxCell>
        <mxCell id="TY1T0JL2RWbXBVbh2Ho9-110" value="PK" style="shape=partialRectangle;overflow=hidden;connectable=0;fillColor=none;top=0;left=0;bottom=0;right=0;fontStyle=0;fontSize=14;" parent="TY1T0JL2RWbXBVbh2Ho9-109" vertex="1">
          <mxGeometry width="30.068990773168068" height="30" as="geometry">
            <mxRectangle width="30.068990773168068" height="30" as="alternateBounds" />
          </mxGeometry>
        </mxCell>
        <mxCell id="TY1T0JL2RWbXBVbh2Ho9-111" value="ID" style="shape=partialRectangle;overflow=hidden;connectable=0;fillColor=none;top=0;left=0;bottom=0;right=0;align=left;spacingLeft=6;fontStyle=4;fontSize=14;" parent="TY1T0JL2RWbXBVbh2Ho9-109" vertex="1">
          <mxGeometry x="30.068990773168068" width="219.93100922683192" height="30" as="geometry">
            <mxRectangle width="219.93100922683192" height="30" as="alternateBounds" />
          </mxGeometry>
        </mxCell>
        <mxCell id="TY1T0JL2RWbXBVbh2Ho9-112" value="" style="shape=partialRectangle;collapsible=0;dropTarget=0;pointerEvents=0;fillColor=none;points=[[0,0.5],[1,0.5]];portConstraint=eastwest;top=0;left=0;right=0;bottom=0;fontSize=14;fontStyle=0" parent="TY1T0JL2RWbXBVbh2Ho9-108" vertex="1">
          <mxGeometry y="60" width="250" height="30" as="geometry" />
        </mxCell>
        <mxCell id="TY1T0JL2RWbXBVbh2Ho9-113" value="FK" style="shape=partialRectangle;overflow=hidden;connectable=0;fillColor=none;top=0;left=0;bottom=0;right=0;fontSize=14;fontStyle=0" parent="TY1T0JL2RWbXBVbh2Ho9-112" vertex="1">
          <mxGeometry width="30.068990773168068" height="30" as="geometry">
            <mxRectangle width="30.068990773168068" height="30" as="alternateBounds" />
          </mxGeometry>
        </mxCell>
        <mxCell id="TY1T0JL2RWbXBVbh2Ho9-114" value="UserId" style="shape=partialRectangle;overflow=hidden;connectable=0;fillColor=none;top=0;left=0;bottom=0;right=0;align=left;spacingLeft=6;fontSize=14;fontStyle=0" parent="TY1T0JL2RWbXBVbh2Ho9-112" vertex="1">
          <mxGeometry x="30.068990773168068" width="219.93100922683192" height="30" as="geometry">
            <mxRectangle width="219.93100922683192" height="30" as="alternateBounds" />
          </mxGeometry>
        </mxCell>
        <mxCell id="TY1T0JL2RWbXBVbh2Ho9-115" value="" style="shape=partialRectangle;collapsible=0;dropTarget=0;pointerEvents=0;fillColor=none;points=[[0,0.5],[1,0.5]];portConstraint=eastwest;top=0;left=0;right=0;bottom=0;fontSize=14;fontStyle=0" parent="TY1T0JL2RWbXBVbh2Ho9-108" vertex="1">
          <mxGeometry y="90" width="250" height="30" as="geometry" />
        </mxCell>
        <mxCell id="TY1T0JL2RWbXBVbh2Ho9-116" value="FK" style="shape=partialRectangle;overflow=hidden;connectable=0;fillColor=none;top=0;left=0;bottom=0;right=0;fontSize=14;fontStyle=0" parent="TY1T0JL2RWbXBVbh2Ho9-115" vertex="1">
          <mxGeometry width="30.068990773168068" height="30" as="geometry">
            <mxRectangle width="30.068990773168068" height="30" as="alternateBounds" />
          </mxGeometry>
        </mxCell>
        <mxCell id="TY1T0JL2RWbXBVbh2Ho9-117" value="RouteId" style="shape=partialRectangle;overflow=hidden;connectable=0;fillColor=none;top=0;left=0;bottom=0;right=0;align=left;spacingLeft=6;fontSize=14;fontStyle=0" parent="TY1T0JL2RWbXBVbh2Ho9-115" vertex="1">
          <mxGeometry x="30.068990773168068" width="219.93100922683192" height="30" as="geometry">
            <mxRectangle width="219.93100922683192" height="30" as="alternateBounds" />
          </mxGeometry>
        </mxCell>
        <mxCell id="CeoSVahRU628ZsRBta8_-180" value="" style="shape=partialRectangle;collapsible=0;dropTarget=0;pointerEvents=0;fillColor=none;points=[[0,0.5],[1,0.5]];portConstraint=eastwest;top=0;left=0;right=0;bottom=0;fontSize=14;fontStyle=0" parent="TY1T0JL2RWbXBVbh2Ho9-108" vertex="1">
          <mxGeometry y="120" width="250" height="30" as="geometry" />
        </mxCell>
        <mxCell id="CeoSVahRU628ZsRBta8_-181" value="" style="shape=partialRectangle;overflow=hidden;connectable=0;fillColor=none;top=0;left=0;bottom=0;right=0;fontSize=14;fontStyle=0" parent="CeoSVahRU628ZsRBta8_-180" vertex="1">
          <mxGeometry width="30.068990773168068" height="30" as="geometry">
            <mxRectangle width="30.068990773168068" height="30" as="alternateBounds" />
          </mxGeometry>
        </mxCell>
        <mxCell id="CeoSVahRU628ZsRBta8_-182" value="Price" style="shape=partialRectangle;overflow=hidden;connectable=0;fillColor=none;top=0;left=0;bottom=0;right=0;align=left;spacingLeft=6;fontSize=14;fontStyle=0" parent="CeoSVahRU628ZsRBta8_-180" vertex="1">
          <mxGeometry x="30.068990773168068" width="219.93100922683192" height="30" as="geometry">
            <mxRectangle width="219.93100922683192" height="30" as="alternateBounds" />
          </mxGeometry>
        </mxCell>
        <mxCell id="CeoSVahRU628ZsRBta8_-183" value="" style="shape=partialRectangle;collapsible=0;dropTarget=0;pointerEvents=0;fillColor=none;points=[[0,0.5],[1,0.5]];portConstraint=eastwest;top=0;left=0;right=0;bottom=0;fontSize=14;fontStyle=0" parent="TY1T0JL2RWbXBVbh2Ho9-108" vertex="1">
          <mxGeometry y="150" width="250" height="30" as="geometry" />
        </mxCell>
        <mxCell id="CeoSVahRU628ZsRBta8_-184" value="" style="shape=partialRectangle;overflow=hidden;connectable=0;fillColor=none;top=0;left=0;bottom=0;right=0;fontSize=14;fontStyle=0" parent="CeoSVahRU628ZsRBta8_-183" vertex="1">
          <mxGeometry width="30.068990773168068" height="30" as="geometry">
            <mxRectangle width="30.068990773168068" height="30" as="alternateBounds" />
          </mxGeometry>
        </mxCell>
        <mxCell id="CeoSVahRU628ZsRBta8_-185" value="Status" style="shape=partialRectangle;overflow=hidden;connectable=0;fillColor=none;top=0;left=0;bottom=0;right=0;align=left;spacingLeft=6;fontSize=14;fontStyle=0" parent="CeoSVahRU628ZsRBta8_-183" vertex="1">
          <mxGeometry x="30.068990773168068" width="219.93100922683192" height="30" as="geometry">
            <mxRectangle width="219.93100922683192" height="30" as="alternateBounds" />
          </mxGeometry>
        </mxCell>
        <mxCell id="CeoSVahRU628ZsRBta8_-186" value="" style="shape=partialRectangle;collapsible=0;dropTarget=0;pointerEvents=0;fillColor=none;points=[[0,0.5],[1,0.5]];portConstraint=eastwest;top=0;left=0;right=0;bottom=0;fontSize=14;fontStyle=0" parent="TY1T0JL2RWbXBVbh2Ho9-108" vertex="1">
          <mxGeometry y="180" width="250" height="30" as="geometry" />
        </mxCell>
        <mxCell id="CeoSVahRU628ZsRBta8_-187" value="" style="shape=partialRectangle;overflow=hidden;connectable=0;fillColor=none;top=0;left=0;bottom=0;right=0;fontSize=14;fontStyle=0" parent="CeoSVahRU628ZsRBta8_-186" vertex="1">
          <mxGeometry width="30.068990773168068" height="30" as="geometry">
            <mxRectangle width="30.068990773168068" height="30" as="alternateBounds" />
          </mxGeometry>
        </mxCell>
        <mxCell id="CeoSVahRU628ZsRBta8_-188" value="Comment" style="shape=partialRectangle;overflow=hidden;connectable=0;fillColor=none;top=0;left=0;bottom=0;right=0;align=left;spacingLeft=6;fontSize=14;fontStyle=0" parent="CeoSVahRU628ZsRBta8_-186" vertex="1">
          <mxGeometry x="30.068990773168068" width="219.93100922683192" height="30" as="geometry">
            <mxRectangle width="219.93100922683192" height="30" as="alternateBounds" />
          </mxGeometry>
        </mxCell>
        <mxCell id="CeoSVahRU628ZsRBta8_-189" value="" style="shape=partialRectangle;collapsible=0;dropTarget=0;pointerEvents=0;fillColor=none;points=[[0,0.5],[1,0.5]];portConstraint=eastwest;top=0;left=0;right=0;bottom=0;fontSize=14;fontStyle=0" parent="TY1T0JL2RWbXBVbh2Ho9-108" vertex="1">
          <mxGeometry y="210" width="250" height="30" as="geometry" />
        </mxCell>
        <mxCell id="CeoSVahRU628ZsRBta8_-190" value="" style="shape=partialRectangle;overflow=hidden;connectable=0;fillColor=none;top=0;left=0;bottom=0;right=0;fontSize=14;fontStyle=0" parent="CeoSVahRU628ZsRBta8_-189" vertex="1">
          <mxGeometry width="30.068990773168068" height="30" as="geometry">
            <mxRectangle width="30.068990773168068" height="30" as="alternateBounds" />
          </mxGeometry>
        </mxCell>
        <mxCell id="CeoSVahRU628ZsRBta8_-191" value="HasChildren" style="shape=partialRectangle;overflow=hidden;connectable=0;fillColor=none;top=0;left=0;bottom=0;right=0;align=left;spacingLeft=6;fontSize=14;fontStyle=0" parent="CeoSVahRU628ZsRBta8_-189" vertex="1">
          <mxGeometry x="30.068990773168068" width="219.93100922683192" height="30" as="geometry">
            <mxRectangle width="219.93100922683192" height="30" as="alternateBounds" />
          </mxGeometry>
        </mxCell>
        <mxCell id="TY1T0JL2RWbXBVbh2Ho9-118" value="" style="shape=partialRectangle;collapsible=0;dropTarget=0;pointerEvents=0;fillColor=none;points=[[0,0.5],[1,0.5]];portConstraint=eastwest;top=0;left=0;right=0;bottom=0;fontSize=14;fontStyle=0" parent="TY1T0JL2RWbXBVbh2Ho9-108" vertex="1">
          <mxGeometry y="240" width="250" height="30" as="geometry" />
        </mxCell>
        <mxCell id="TY1T0JL2RWbXBVbh2Ho9-119" value="" style="shape=partialRectangle;overflow=hidden;connectable=0;fillColor=none;top=0;left=0;bottom=0;right=0;fontSize=14;fontStyle=0" parent="TY1T0JL2RWbXBVbh2Ho9-118" vertex="1">
          <mxGeometry width="30.068990773168068" height="30" as="geometry">
            <mxRectangle width="30.068990773168068" height="30" as="alternateBounds" />
          </mxGeometry>
        </mxCell>
        <mxCell id="TY1T0JL2RWbXBVbh2Ho9-120" value="PrioritySeatsInTransport" style="shape=partialRectangle;overflow=hidden;connectable=0;fillColor=none;top=0;left=0;bottom=0;right=0;align=left;spacingLeft=6;fontSize=14;fontStyle=0" parent="TY1T0JL2RWbXBVbh2Ho9-118" vertex="1">
          <mxGeometry x="30.068990773168068" width="219.93100922683192" height="30" as="geometry">
            <mxRectangle width="219.93100922683192" height="30" as="alternateBounds" />
          </mxGeometry>
        </mxCell>
        <mxCell id="TY1T0JL2RWbXBVbh2Ho9-130" value="TourTypes" style="shape=table;startSize=30;container=1;collapsible=1;childLayout=tableLayout;fixedRows=1;rowLines=0;fontStyle=0;align=center;resizeLast=1;fontSize=14;spacing=2;" parent="1" vertex="1">
          <mxGeometry x="93" y="-393" width="250" height="120" as="geometry" />
        </mxCell>
        <mxCell id="TY1T0JL2RWbXBVbh2Ho9-131" value="" style="shape=partialRectangle;collapsible=0;dropTarget=0;pointerEvents=0;fillColor=none;points=[[0,0.5],[1,0.5]];portConstraint=eastwest;top=0;left=0;right=0;bottom=1;fontSize=14;fontStyle=0" parent="TY1T0JL2RWbXBVbh2Ho9-130" vertex="1">
          <mxGeometry y="30" width="250" height="30" as="geometry" />
        </mxCell>
        <mxCell id="TY1T0JL2RWbXBVbh2Ho9-132" value="PK" style="shape=partialRectangle;overflow=hidden;connectable=0;fillColor=none;top=0;left=0;bottom=0;right=0;fontStyle=0;fontSize=14;" parent="TY1T0JL2RWbXBVbh2Ho9-131" vertex="1">
          <mxGeometry width="30" height="30" as="geometry">
            <mxRectangle width="30" height="30" as="alternateBounds" />
          </mxGeometry>
        </mxCell>
        <mxCell id="TY1T0JL2RWbXBVbh2Ho9-133" value="ID" style="shape=partialRectangle;overflow=hidden;connectable=0;fillColor=none;top=0;left=0;bottom=0;right=0;align=left;spacingLeft=6;fontStyle=4;fontSize=14;" parent="TY1T0JL2RWbXBVbh2Ho9-131" vertex="1">
          <mxGeometry x="30" width="220" height="30" as="geometry">
            <mxRectangle width="220" height="30" as="alternateBounds" />
          </mxGeometry>
        </mxCell>
        <mxCell id="TQ3iEzF1nXxN9szr9kvA-4" value="" style="shape=partialRectangle;collapsible=0;dropTarget=0;pointerEvents=0;fillColor=none;points=[[0,0.5],[1,0.5]];portConstraint=eastwest;top=0;left=0;right=0;bottom=0;fontSize=14;fontStyle=0" parent="TY1T0JL2RWbXBVbh2Ho9-130" vertex="1">
          <mxGeometry y="60" width="250" height="30" as="geometry" />
        </mxCell>
        <mxCell id="TQ3iEzF1nXxN9szr9kvA-5" value="" style="shape=partialRectangle;overflow=hidden;connectable=0;fillColor=none;top=0;left=0;bottom=0;right=0;fontSize=14;fontStyle=0" parent="TQ3iEzF1nXxN9szr9kvA-4" vertex="1">
          <mxGeometry width="30" height="30" as="geometry">
            <mxRectangle width="30" height="30" as="alternateBounds" />
          </mxGeometry>
        </mxCell>
        <mxCell id="TQ3iEzF1nXxN9szr9kvA-6" value="Name" style="shape=partialRectangle;overflow=hidden;connectable=0;fillColor=none;top=0;left=0;bottom=0;right=0;align=left;spacingLeft=6;fontSize=14;fontStyle=0" parent="TQ3iEzF1nXxN9szr9kvA-4" vertex="1">
          <mxGeometry x="30" width="220" height="30" as="geometry">
            <mxRectangle width="220" height="30" as="alternateBounds" />
          </mxGeometry>
        </mxCell>
        <mxCell id="TY1T0JL2RWbXBVbh2Ho9-134" value="" style="shape=partialRectangle;collapsible=0;dropTarget=0;pointerEvents=0;fillColor=none;points=[[0,0.5],[1,0.5]];portConstraint=eastwest;top=0;left=0;right=0;bottom=0;fontSize=14;fontStyle=0" parent="TY1T0JL2RWbXBVbh2Ho9-130" vertex="1">
          <mxGeometry y="90" width="250" height="30" as="geometry" />
        </mxCell>
        <mxCell id="TY1T0JL2RWbXBVbh2Ho9-135" value="" style="shape=partialRectangle;overflow=hidden;connectable=0;fillColor=none;top=0;left=0;bottom=0;right=0;fontSize=14;fontStyle=0" parent="TY1T0JL2RWbXBVbh2Ho9-134" vertex="1">
          <mxGeometry width="30" height="30" as="geometry">
            <mxRectangle width="30" height="30" as="alternateBounds" />
          </mxGeometry>
        </mxCell>
        <mxCell id="TY1T0JL2RWbXBVbh2Ho9-136" value="PathToImage" style="shape=partialRectangle;overflow=hidden;connectable=0;fillColor=none;top=0;left=0;bottom=0;right=0;align=left;spacingLeft=6;fontSize=14;fontStyle=0" parent="TY1T0JL2RWbXBVbh2Ho9-134" vertex="1">
          <mxGeometry x="30" width="220" height="30" as="geometry">
            <mxRectangle width="220" height="30" as="alternateBounds" />
          </mxGeometry>
        </mxCell>
        <mxCell id="TY1T0JL2RWbXBVbh2Ho9-146" value="TourCharacteristics" style="shape=table;startSize=30;container=1;collapsible=1;childLayout=tableLayout;fixedRows=1;rowLines=0;fontStyle=0;align=center;resizeLast=1;fontSize=14;spacing=2;" parent="1" vertex="1">
          <mxGeometry x="-262.08" y="-677" width="250" height="90" as="geometry" />
        </mxCell>
        <mxCell id="TY1T0JL2RWbXBVbh2Ho9-147" value="" style="shape=partialRectangle;collapsible=0;dropTarget=0;pointerEvents=0;fillColor=none;points=[[0,0.5],[1,0.5]];portConstraint=eastwest;top=0;left=0;right=0;bottom=1;fontSize=14;fontStyle=0" parent="TY1T0JL2RWbXBVbh2Ho9-146" vertex="1">
          <mxGeometry y="30" width="250" height="30" as="geometry" />
        </mxCell>
        <mxCell id="TY1T0JL2RWbXBVbh2Ho9-148" value="PK" style="shape=partialRectangle;overflow=hidden;connectable=0;fillColor=none;top=0;left=0;bottom=0;right=0;fontStyle=0;fontSize=14;" parent="TY1T0JL2RWbXBVbh2Ho9-147" vertex="1">
          <mxGeometry width="30" height="30" as="geometry">
            <mxRectangle width="30" height="30" as="alternateBounds" />
          </mxGeometry>
        </mxCell>
        <mxCell id="TY1T0JL2RWbXBVbh2Ho9-149" value="ID" style="shape=partialRectangle;overflow=hidden;connectable=0;fillColor=none;top=0;left=0;bottom=0;right=0;align=left;spacingLeft=6;fontStyle=4;fontSize=14;" parent="TY1T0JL2RWbXBVbh2Ho9-147" vertex="1">
          <mxGeometry x="30" width="220" height="30" as="geometry">
            <mxRectangle width="220" height="30" as="alternateBounds" />
          </mxGeometry>
        </mxCell>
        <mxCell id="TY1T0JL2RWbXBVbh2Ho9-153" value="" style="shape=partialRectangle;collapsible=0;dropTarget=0;pointerEvents=0;fillColor=none;points=[[0,0.5],[1,0.5]];portConstraint=eastwest;top=0;left=0;right=0;bottom=0;fontSize=14;fontStyle=0" parent="TY1T0JL2RWbXBVbh2Ho9-146" vertex="1">
          <mxGeometry y="60" width="250" height="30" as="geometry" />
        </mxCell>
        <mxCell id="TY1T0JL2RWbXBVbh2Ho9-154" value="" style="shape=partialRectangle;overflow=hidden;connectable=0;fillColor=none;top=0;left=0;bottom=0;right=0;fontSize=14;fontStyle=0" parent="TY1T0JL2RWbXBVbh2Ho9-153" vertex="1">
          <mxGeometry width="30" height="30" as="geometry">
            <mxRectangle width="30" height="30" as="alternateBounds" />
          </mxGeometry>
        </mxCell>
        <mxCell id="TY1T0JL2RWbXBVbh2Ho9-155" value="Name" style="shape=partialRectangle;overflow=hidden;connectable=0;fillColor=none;top=0;left=0;bottom=0;right=0;align=left;spacingLeft=6;fontSize=14;fontStyle=0" parent="TY1T0JL2RWbXBVbh2Ho9-153" vertex="1">
          <mxGeometry x="30" width="220" height="30" as="geometry">
            <mxRectangle width="220" height="30" as="alternateBounds" />
          </mxGeometry>
        </mxCell>
        <mxCell id="TY1T0JL2RWbXBVbh2Ho9-156" value="TourDescriptions" style="shape=table;startSize=30;container=1;collapsible=1;childLayout=tableLayout;fixedRows=1;rowLines=0;fontStyle=0;align=center;resizeLast=1;fontSize=14;spacing=2;" parent="1" vertex="1">
          <mxGeometry x="106" y="-717" width="250" height="120" as="geometry" />
        </mxCell>
        <mxCell id="TY1T0JL2RWbXBVbh2Ho9-157" value="" style="shape=partialRectangle;collapsible=0;dropTarget=0;pointerEvents=0;fillColor=none;points=[[0,0.5],[1,0.5]];portConstraint=eastwest;top=0;left=0;right=0;bottom=1;fontSize=14;fontStyle=0" parent="TY1T0JL2RWbXBVbh2Ho9-156" vertex="1">
          <mxGeometry y="30" width="250" height="30" as="geometry" />
        </mxCell>
        <mxCell id="TY1T0JL2RWbXBVbh2Ho9-158" value="PK" style="shape=partialRectangle;overflow=hidden;connectable=0;fillColor=none;top=0;left=0;bottom=0;right=0;fontStyle=0;fontSize=14;" parent="TY1T0JL2RWbXBVbh2Ho9-157" vertex="1">
          <mxGeometry width="30" height="30" as="geometry">
            <mxRectangle width="30" height="30" as="alternateBounds" />
          </mxGeometry>
        </mxCell>
        <mxCell id="TY1T0JL2RWbXBVbh2Ho9-159" value="ID" style="shape=partialRectangle;overflow=hidden;connectable=0;fillColor=none;top=0;left=0;bottom=0;right=0;align=left;spacingLeft=6;fontStyle=4;fontSize=14;" parent="TY1T0JL2RWbXBVbh2Ho9-157" vertex="1">
          <mxGeometry x="30" width="220" height="30" as="geometry">
            <mxRectangle width="220" height="30" as="alternateBounds" />
          </mxGeometry>
        </mxCell>
        <mxCell id="TY1T0JL2RWbXBVbh2Ho9-160" value="" style="shape=partialRectangle;collapsible=0;dropTarget=0;pointerEvents=0;fillColor=none;points=[[0,0.5],[1,0.5]];portConstraint=eastwest;top=0;left=0;right=0;bottom=0;fontSize=14;fontStyle=0" parent="TY1T0JL2RWbXBVbh2Ho9-156" vertex="1">
          <mxGeometry y="60" width="250" height="30" as="geometry" />
        </mxCell>
        <mxCell id="TY1T0JL2RWbXBVbh2Ho9-161" value="FK" style="shape=partialRectangle;overflow=hidden;connectable=0;fillColor=none;top=0;left=0;bottom=0;right=0;fontSize=14;fontStyle=0" parent="TY1T0JL2RWbXBVbh2Ho9-160" vertex="1">
          <mxGeometry width="30" height="30" as="geometry">
            <mxRectangle width="30" height="30" as="alternateBounds" />
          </mxGeometry>
        </mxCell>
        <mxCell id="TY1T0JL2RWbXBVbh2Ho9-162" value="CharacteristicID" style="shape=partialRectangle;overflow=hidden;connectable=0;fillColor=none;top=0;left=0;bottom=0;right=0;align=left;spacingLeft=6;fontSize=14;fontStyle=0" parent="TY1T0JL2RWbXBVbh2Ho9-160" vertex="1">
          <mxGeometry x="30" width="220" height="30" as="geometry">
            <mxRectangle width="220" height="30" as="alternateBounds" />
          </mxGeometry>
        </mxCell>
        <mxCell id="TY1T0JL2RWbXBVbh2Ho9-166" value="" style="shape=partialRectangle;collapsible=0;dropTarget=0;pointerEvents=0;fillColor=none;points=[[0,0.5],[1,0.5]];portConstraint=eastwest;top=0;left=0;right=0;bottom=0;fontSize=14;fontStyle=0" parent="TY1T0JL2RWbXBVbh2Ho9-156" vertex="1">
          <mxGeometry y="90" width="250" height="30" as="geometry" />
        </mxCell>
        <mxCell id="TY1T0JL2RWbXBVbh2Ho9-167" value="FK" style="shape=partialRectangle;overflow=hidden;connectable=0;fillColor=none;top=0;left=0;bottom=0;right=0;fontSize=14;fontStyle=0" parent="TY1T0JL2RWbXBVbh2Ho9-166" vertex="1">
          <mxGeometry width="30" height="30" as="geometry">
            <mxRectangle width="30" height="30" as="alternateBounds" />
          </mxGeometry>
        </mxCell>
        <mxCell id="TY1T0JL2RWbXBVbh2Ho9-168" value="TourID" style="shape=partialRectangle;overflow=hidden;connectable=0;fillColor=none;top=0;left=0;bottom=0;right=0;align=left;spacingLeft=6;fontSize=14;fontStyle=0" parent="TY1T0JL2RWbXBVbh2Ho9-166" vertex="1">
          <mxGeometry x="30" width="220" height="30" as="geometry">
            <mxRectangle width="220" height="30" as="alternateBounds" />
          </mxGeometry>
        </mxCell>
        <mxCell id="lTmND7Rva51dCuOtluGX-3" style="edgeStyle=orthogonalEdgeStyle;rounded=0;orthogonalLoop=1;jettySize=auto;html=1;fontSize=14;startSize=8;endSize=8;endArrow=ERone;endFill=0;startArrow=ERoneToMany;startFill=0;entryX=0;entryY=0.5;entryDx=0;entryDy=0;fontStyle=0" parent="1" target="TY1T0JL2RWbXBVbh2Ho9-131" edge="1">
          <mxGeometry relative="1" as="geometry">
            <Array as="points">
              <mxPoint x="416" y="-645" />
              <mxPoint x="416" y="-410" />
              <mxPoint x="66" y="-410" />
              <mxPoint x="66" y="-347" />
              <mxPoint x="93" y="-347" />
            </Array>
            <mxPoint x="442" y="-645" as="sourcePoint" />
            <mxPoint x="358" y="-337" as="targetPoint" />
          </mxGeometry>
        </mxCell>
        <mxCell id="lTmND7Rva51dCuOtluGX-20" style="edgeStyle=orthogonalEdgeStyle;rounded=0;orthogonalLoop=1;jettySize=auto;html=1;exitX=0;exitY=0.5;exitDx=0;exitDy=0;entryX=0;entryY=0.5;entryDx=0;entryDy=0;fontSize=14;startSize=8;endSize=8;startArrow=ERoneToMany;startFill=0;endArrow=ERone;endFill=0;fontStyle=0" parent="1" source="TY1T0JL2RWbXBVbh2Ho9-160" target="TY1T0JL2RWbXBVbh2Ho9-147" edge="1">
          <mxGeometry relative="1" as="geometry">
            <Array as="points">
              <mxPoint x="47" y="-642" />
              <mxPoint x="47" y="-565" />
              <mxPoint x="-282" y="-565" />
              <mxPoint x="-282" y="-632" />
            </Array>
          </mxGeometry>
        </mxCell>
        <mxCell id="b7TNTJ-v1JW3-JPRimVq-4" style="edgeStyle=orthogonalEdgeStyle;rounded=0;orthogonalLoop=1;jettySize=auto;html=1;exitX=0;exitY=0.5;exitDx=0;exitDy=0;fontSize=14;startSize=8;endSize=8;endArrow=none;endFill=0;startArrow=ERoneToMany;startFill=0;fontStyle=0" parent="1" source="TY1T0JL2RWbXBVbh2Ho9-112" edge="1">
          <mxGeometry relative="1" as="geometry">
            <Array as="points">
              <mxPoint x="24" y="-171" />
              <mxPoint x="24" y="-368" />
            </Array>
            <mxPoint x="24" y="-369" as="targetPoint" />
            <mxPoint x="70" y="-173.99999999999977" as="sourcePoint" />
          </mxGeometry>
        </mxCell>
        <mxCell id="b7TNTJ-v1JW3-JPRimVq-6" style="edgeStyle=orthogonalEdgeStyle;rounded=0;orthogonalLoop=1;jettySize=auto;html=1;exitX=0;exitY=0.5;exitDx=0;exitDy=0;fontSize=14;startSize=8;endSize=8;endArrow=ERone;endFill=0;entryX=0;entryY=0.5;entryDx=0;entryDy=0;startArrow=ERoneToMany;startFill=0;fontStyle=0" parent="1" source="TY1T0JL2RWbXBVbh2Ho9-115" target="TQ3iEzF1nXxN9szr9kvA-114" edge="1">
          <mxGeometry relative="1" as="geometry">
            <mxPoint x="696" y="-475" as="targetPoint" />
            <Array as="points">
              <mxPoint x="48" y="-141" />
              <mxPoint x="48" y="354" />
              <mxPoint x="1398" y="354" />
              <mxPoint x="1398" y="-726" />
              <mxPoint x="1067" y="-726" />
              <mxPoint x="1067" y="-672" />
            </Array>
            <mxPoint x="446" y="-2" as="sourcePoint" />
          </mxGeometry>
        </mxCell>
        <mxCell id="TQ3iEzF1nXxN9szr9kvA-28" value="Hotels" style="shape=table;startSize=30;container=1;collapsible=1;childLayout=tableLayout;fixedRows=1;rowLines=0;fontStyle=0;align=center;resizeLast=1;fontSize=14;spacing=2;" parent="1" vertex="1">
          <mxGeometry x="788" y="-199" width="250" height="300" as="geometry">
            <mxRectangle x="446" y="-517" width="58" height="30" as="alternateBounds" />
          </mxGeometry>
        </mxCell>
        <mxCell id="TQ3iEzF1nXxN9szr9kvA-29" value="" style="shape=partialRectangle;collapsible=0;dropTarget=0;pointerEvents=0;fillColor=none;points=[[0,0.5],[1,0.5]];portConstraint=eastwest;top=0;left=0;right=0;bottom=1;fontSize=14;fontStyle=0" parent="TQ3iEzF1nXxN9szr9kvA-28" vertex="1">
          <mxGeometry y="30" width="250" height="30" as="geometry" />
        </mxCell>
        <mxCell id="TQ3iEzF1nXxN9szr9kvA-30" value="PK" style="shape=partialRectangle;overflow=hidden;connectable=0;fillColor=none;top=0;left=0;bottom=0;right=0;fontStyle=0;fontSize=14;" parent="TQ3iEzF1nXxN9szr9kvA-29" vertex="1">
          <mxGeometry width="30" height="30" as="geometry">
            <mxRectangle width="30" height="30" as="alternateBounds" />
          </mxGeometry>
        </mxCell>
        <mxCell id="TQ3iEzF1nXxN9szr9kvA-31" value="ID" style="shape=partialRectangle;overflow=hidden;connectable=0;fillColor=none;top=0;left=0;bottom=0;right=0;align=left;spacingLeft=6;fontStyle=4;fontSize=14;" parent="TQ3iEzF1nXxN9szr9kvA-29" vertex="1">
          <mxGeometry x="30" width="220" height="30" as="geometry">
            <mxRectangle width="220" height="30" as="alternateBounds" />
          </mxGeometry>
        </mxCell>
        <mxCell id="CeoSVahRU628ZsRBta8_-8" value="" style="shape=partialRectangle;collapsible=0;dropTarget=0;pointerEvents=0;fillColor=none;points=[[0,0.5],[1,0.5]];portConstraint=eastwest;top=0;left=0;right=0;bottom=0;fontSize=14;fontStyle=0" parent="TQ3iEzF1nXxN9szr9kvA-28" vertex="1">
          <mxGeometry y="60" width="250" height="30" as="geometry" />
        </mxCell>
        <mxCell id="CeoSVahRU628ZsRBta8_-9" value="FK" style="shape=partialRectangle;overflow=hidden;connectable=0;fillColor=none;top=0;left=0;bottom=0;right=0;fontSize=14;fontStyle=0" parent="CeoSVahRU628ZsRBta8_-8" vertex="1">
          <mxGeometry width="30" height="30" as="geometry">
            <mxRectangle width="30" height="30" as="alternateBounds" />
          </mxGeometry>
        </mxCell>
        <mxCell id="CeoSVahRU628ZsRBta8_-10" value="NutritionTypeId" style="shape=partialRectangle;overflow=hidden;connectable=0;fillColor=none;top=0;left=0;bottom=0;right=0;align=left;spacingLeft=6;fontSize=14;fontStyle=0" parent="CeoSVahRU628ZsRBta8_-8" vertex="1">
          <mxGeometry x="30" width="220" height="30" as="geometry">
            <mxRectangle width="220" height="30" as="alternateBounds" />
          </mxGeometry>
        </mxCell>
        <mxCell id="TQ3iEzF1nXxN9szr9kvA-32" value="" style="shape=partialRectangle;collapsible=0;dropTarget=0;pointerEvents=0;fillColor=none;points=[[0,0.5],[1,0.5]];portConstraint=eastwest;top=0;left=0;right=0;bottom=0;fontSize=14;fontStyle=0" parent="TQ3iEzF1nXxN9szr9kvA-28" vertex="1">
          <mxGeometry y="90" width="250" height="30" as="geometry" />
        </mxCell>
        <mxCell id="TQ3iEzF1nXxN9szr9kvA-33" value="FK" style="shape=partialRectangle;overflow=hidden;connectable=0;fillColor=none;top=0;left=0;bottom=0;right=0;fontSize=14;fontStyle=0" parent="TQ3iEzF1nXxN9szr9kvA-32" vertex="1">
          <mxGeometry width="30" height="30" as="geometry">
            <mxRectangle width="30" height="30" as="alternateBounds" />
          </mxGeometry>
        </mxCell>
        <mxCell id="TQ3iEzF1nXxN9szr9kvA-34" value="CityId" style="shape=partialRectangle;overflow=hidden;connectable=0;fillColor=none;top=0;left=0;bottom=0;right=0;align=left;spacingLeft=6;fontSize=14;fontStyle=0" parent="TQ3iEzF1nXxN9szr9kvA-32" vertex="1">
          <mxGeometry x="30" width="220" height="30" as="geometry">
            <mxRectangle width="220" height="30" as="alternateBounds" />
          </mxGeometry>
        </mxCell>
        <mxCell id="TQ3iEzF1nXxN9szr9kvA-35" value="" style="shape=partialRectangle;collapsible=0;dropTarget=0;pointerEvents=0;fillColor=none;points=[[0,0.5],[1,0.5]];portConstraint=eastwest;top=0;left=0;right=0;bottom=0;fontSize=14;fontStyle=0" parent="TQ3iEzF1nXxN9szr9kvA-28" vertex="1">
          <mxGeometry y="120" width="250" height="30" as="geometry" />
        </mxCell>
        <mxCell id="TQ3iEzF1nXxN9szr9kvA-36" value="" style="shape=partialRectangle;overflow=hidden;connectable=0;fillColor=none;top=0;left=0;bottom=0;right=0;fontSize=14;fontStyle=0" parent="TQ3iEzF1nXxN9szr9kvA-35" vertex="1">
          <mxGeometry width="30" height="30" as="geometry">
            <mxRectangle width="30" height="30" as="alternateBounds" />
          </mxGeometry>
        </mxCell>
        <mxCell id="TQ3iEzF1nXxN9szr9kvA-37" value="Name" style="shape=partialRectangle;overflow=hidden;connectable=0;fillColor=none;top=0;left=0;bottom=0;right=0;align=left;spacingLeft=6;fontSize=14;fontStyle=0" parent="TQ3iEzF1nXxN9szr9kvA-35" vertex="1">
          <mxGeometry x="30" width="220" height="30" as="geometry">
            <mxRectangle width="220" height="30" as="alternateBounds" />
          </mxGeometry>
        </mxCell>
        <mxCell id="CeoSVahRU628ZsRBta8_-2" value="" style="shape=partialRectangle;collapsible=0;dropTarget=0;pointerEvents=0;fillColor=none;points=[[0,0.5],[1,0.5]];portConstraint=eastwest;top=0;left=0;right=0;bottom=0;fontSize=14;fontStyle=0" parent="TQ3iEzF1nXxN9szr9kvA-28" vertex="1">
          <mxGeometry y="150" width="250" height="30" as="geometry" />
        </mxCell>
        <mxCell id="CeoSVahRU628ZsRBta8_-3" value="" style="shape=partialRectangle;overflow=hidden;connectable=0;fillColor=none;top=0;left=0;bottom=0;right=0;fontSize=14;fontStyle=0" parent="CeoSVahRU628ZsRBta8_-2" vertex="1">
          <mxGeometry width="30" height="30" as="geometry">
            <mxRectangle width="30" height="30" as="alternateBounds" />
          </mxGeometry>
        </mxCell>
        <mxCell id="CeoSVahRU628ZsRBta8_-4" value="StarsNumber" style="shape=partialRectangle;overflow=hidden;connectable=0;fillColor=none;top=0;left=0;bottom=0;right=0;align=left;spacingLeft=6;fontSize=14;fontStyle=0" parent="CeoSVahRU628ZsRBta8_-2" vertex="1">
          <mxGeometry x="30" width="220" height="30" as="geometry">
            <mxRectangle width="220" height="30" as="alternateBounds" />
          </mxGeometry>
        </mxCell>
        <mxCell id="CeoSVahRU628ZsRBta8_-5" value="" style="shape=partialRectangle;collapsible=0;dropTarget=0;pointerEvents=0;fillColor=none;points=[[0,0.5],[1,0.5]];portConstraint=eastwest;top=0;left=0;right=0;bottom=0;fontSize=14;fontStyle=0" parent="TQ3iEzF1nXxN9szr9kvA-28" vertex="1">
          <mxGeometry y="180" width="250" height="30" as="geometry" />
        </mxCell>
        <mxCell id="CeoSVahRU628ZsRBta8_-6" value="" style="shape=partialRectangle;overflow=hidden;connectable=0;fillColor=none;top=0;left=0;bottom=0;right=0;fontSize=14;fontStyle=0" parent="CeoSVahRU628ZsRBta8_-5" vertex="1">
          <mxGeometry width="30" height="30" as="geometry">
            <mxRectangle width="30" height="30" as="alternateBounds" />
          </mxGeometry>
        </mxCell>
        <mxCell id="CeoSVahRU628ZsRBta8_-7" value="Address" style="shape=partialRectangle;overflow=hidden;connectable=0;fillColor=none;top=0;left=0;bottom=0;right=0;align=left;spacingLeft=6;fontSize=14;fontStyle=0" parent="CeoSVahRU628ZsRBta8_-5" vertex="1">
          <mxGeometry x="30" width="220" height="30" as="geometry">
            <mxRectangle width="220" height="30" as="alternateBounds" />
          </mxGeometry>
        </mxCell>
        <mxCell id="CeoSVahRU628ZsRBta8_-11" value="" style="shape=partialRectangle;collapsible=0;dropTarget=0;pointerEvents=0;fillColor=none;points=[[0,0.5],[1,0.5]];portConstraint=eastwest;top=0;left=0;right=0;bottom=0;fontSize=14;fontStyle=0" parent="TQ3iEzF1nXxN9szr9kvA-28" vertex="1">
          <mxGeometry y="210" width="250" height="30" as="geometry" />
        </mxCell>
        <mxCell id="CeoSVahRU628ZsRBta8_-12" value="" style="shape=partialRectangle;overflow=hidden;connectable=0;fillColor=none;top=0;left=0;bottom=0;right=0;fontSize=14;fontStyle=0" parent="CeoSVahRU628ZsRBta8_-11" vertex="1">
          <mxGeometry width="30" height="30" as="geometry">
            <mxRectangle width="30" height="30" as="alternateBounds" />
          </mxGeometry>
        </mxCell>
        <mxCell id="CeoSVahRU628ZsRBta8_-13" value="MainDescription" style="shape=partialRectangle;overflow=hidden;connectable=0;fillColor=none;top=0;left=0;bottom=0;right=0;align=left;spacingLeft=6;fontSize=14;fontStyle=0" parent="CeoSVahRU628ZsRBta8_-11" vertex="1">
          <mxGeometry x="30" width="220" height="30" as="geometry">
            <mxRectangle width="220" height="30" as="alternateBounds" />
          </mxGeometry>
        </mxCell>
        <mxCell id="CeoSVahRU628ZsRBta8_-14" value="" style="shape=partialRectangle;collapsible=0;dropTarget=0;pointerEvents=0;fillColor=none;points=[[0,0.5],[1,0.5]];portConstraint=eastwest;top=0;left=0;right=0;bottom=0;fontSize=14;fontStyle=0" parent="TQ3iEzF1nXxN9szr9kvA-28" vertex="1">
          <mxGeometry y="240" width="250" height="30" as="geometry" />
        </mxCell>
        <mxCell id="CeoSVahRU628ZsRBta8_-15" value="" style="shape=partialRectangle;overflow=hidden;connectable=0;fillColor=none;top=0;left=0;bottom=0;right=0;fontSize=14;fontStyle=0" parent="CeoSVahRU628ZsRBta8_-14" vertex="1">
          <mxGeometry width="30" height="30" as="geometry">
            <mxRectangle width="30" height="30" as="alternateBounds" />
          </mxGeometry>
        </mxCell>
        <mxCell id="CeoSVahRU628ZsRBta8_-16" value="Lat" style="shape=partialRectangle;overflow=hidden;connectable=0;fillColor=none;top=0;left=0;bottom=0;right=0;align=left;spacingLeft=6;fontSize=14;fontStyle=0" parent="CeoSVahRU628ZsRBta8_-14" vertex="1">
          <mxGeometry x="30" width="220" height="30" as="geometry">
            <mxRectangle width="220" height="30" as="alternateBounds" />
          </mxGeometry>
        </mxCell>
        <mxCell id="TQ3iEzF1nXxN9szr9kvA-38" value="" style="shape=partialRectangle;collapsible=0;dropTarget=0;pointerEvents=0;fillColor=none;points=[[0,0.5],[1,0.5]];portConstraint=eastwest;top=0;left=0;right=0;bottom=0;fontSize=14;fontStyle=0" parent="TQ3iEzF1nXxN9szr9kvA-28" vertex="1">
          <mxGeometry y="270" width="250" height="30" as="geometry" />
        </mxCell>
        <mxCell id="TQ3iEzF1nXxN9szr9kvA-39" value="" style="shape=partialRectangle;overflow=hidden;connectable=0;fillColor=none;top=0;left=0;bottom=0;right=0;fontSize=14;fontStyle=0" parent="TQ3iEzF1nXxN9szr9kvA-38" vertex="1">
          <mxGeometry width="30" height="30" as="geometry">
            <mxRectangle width="30" height="30" as="alternateBounds" />
          </mxGeometry>
        </mxCell>
        <mxCell id="TQ3iEzF1nXxN9szr9kvA-40" value="Lng" style="shape=partialRectangle;overflow=hidden;connectable=0;fillColor=none;top=0;left=0;bottom=0;right=0;align=left;spacingLeft=6;fontSize=14;fontStyle=0" parent="TQ3iEzF1nXxN9szr9kvA-38" vertex="1">
          <mxGeometry x="30" width="220" height="30" as="geometry">
            <mxRectangle width="220" height="30" as="alternateBounds" />
          </mxGeometry>
        </mxCell>
        <mxCell id="TQ3iEzF1nXxN9szr9kvA-42" value="Cities" style="shape=table;startSize=30;container=1;collapsible=1;childLayout=tableLayout;fixedRows=1;rowLines=0;fontStyle=0;align=center;resizeLast=1;fontSize=14;spacing=2;" parent="1" vertex="1">
          <mxGeometry x="400" y="98" width="250" height="240" as="geometry">
            <mxRectangle x="446" y="-517" width="58" height="30" as="alternateBounds" />
          </mxGeometry>
        </mxCell>
        <mxCell id="TQ3iEzF1nXxN9szr9kvA-43" value="" style="shape=partialRectangle;collapsible=0;dropTarget=0;pointerEvents=0;fillColor=none;points=[[0,0.5],[1,0.5]];portConstraint=eastwest;top=0;left=0;right=0;bottom=1;fontSize=14;fontStyle=0" parent="TQ3iEzF1nXxN9szr9kvA-42" vertex="1">
          <mxGeometry y="30" width="250" height="30" as="geometry" />
        </mxCell>
        <mxCell id="TQ3iEzF1nXxN9szr9kvA-44" value="PK" style="shape=partialRectangle;overflow=hidden;connectable=0;fillColor=none;top=0;left=0;bottom=0;right=0;fontStyle=0;fontSize=14;" parent="TQ3iEzF1nXxN9szr9kvA-43" vertex="1">
          <mxGeometry width="30.315802323190894" height="30" as="geometry">
            <mxRectangle width="30.315802323190894" height="30" as="alternateBounds" />
          </mxGeometry>
        </mxCell>
        <mxCell id="TQ3iEzF1nXxN9szr9kvA-45" value="ID" style="shape=partialRectangle;overflow=hidden;connectable=0;fillColor=none;top=0;left=0;bottom=0;right=0;align=left;spacingLeft=6;fontStyle=4;fontSize=14;" parent="TQ3iEzF1nXxN9szr9kvA-43" vertex="1">
          <mxGeometry x="30.315802323190894" width="219.6841976768091" height="30" as="geometry">
            <mxRectangle width="219.6841976768091" height="30" as="alternateBounds" />
          </mxGeometry>
        </mxCell>
        <mxCell id="TQ3iEzF1nXxN9szr9kvA-46" value="" style="shape=partialRectangle;collapsible=0;dropTarget=0;pointerEvents=0;fillColor=none;points=[[0,0.5],[1,0.5]];portConstraint=eastwest;top=0;left=0;right=0;bottom=0;fontSize=14;fontStyle=0" parent="TQ3iEzF1nXxN9szr9kvA-42" vertex="1">
          <mxGeometry y="60" width="250" height="30" as="geometry" />
        </mxCell>
        <mxCell id="TQ3iEzF1nXxN9szr9kvA-47" value="FK" style="shape=partialRectangle;overflow=hidden;connectable=0;fillColor=none;top=0;left=0;bottom=0;right=0;fontSize=14;fontStyle=0" parent="TQ3iEzF1nXxN9szr9kvA-46" vertex="1">
          <mxGeometry width="30.315802323190894" height="30" as="geometry">
            <mxRectangle width="30.315802323190894" height="30" as="alternateBounds" />
          </mxGeometry>
        </mxCell>
        <mxCell id="TQ3iEzF1nXxN9szr9kvA-48" value="CountryId" style="shape=partialRectangle;overflow=hidden;connectable=0;fillColor=none;top=0;left=0;bottom=0;right=0;align=left;spacingLeft=6;fontSize=14;fontStyle=0" parent="TQ3iEzF1nXxN9szr9kvA-46" vertex="1">
          <mxGeometry x="30.315802323190894" width="219.6841976768091" height="30" as="geometry">
            <mxRectangle width="219.6841976768091" height="30" as="alternateBounds" />
          </mxGeometry>
        </mxCell>
        <mxCell id="QpW0727UNLBQQFXdd8Zh-21" value="" style="shape=partialRectangle;collapsible=0;dropTarget=0;pointerEvents=0;fillColor=none;points=[[0,0.5],[1,0.5]];portConstraint=eastwest;top=0;left=0;right=0;bottom=0;fontSize=14;fontStyle=0" parent="TQ3iEzF1nXxN9szr9kvA-42" vertex="1">
          <mxGeometry y="90" width="250" height="30" as="geometry" />
        </mxCell>
        <mxCell id="QpW0727UNLBQQFXdd8Zh-22" value="FK" style="shape=partialRectangle;overflow=hidden;connectable=0;fillColor=none;top=0;left=0;bottom=0;right=0;fontSize=14;fontStyle=0" parent="QpW0727UNLBQQFXdd8Zh-21" vertex="1">
          <mxGeometry width="30.315802323190894" height="30" as="geometry">
            <mxRectangle width="30.315802323190894" height="30" as="alternateBounds" />
          </mxGeometry>
        </mxCell>
        <mxCell id="QpW0727UNLBQQFXdd8Zh-23" value="ClimateId" style="shape=partialRectangle;overflow=hidden;connectable=0;fillColor=none;top=0;left=0;bottom=0;right=0;align=left;spacingLeft=6;fontSize=14;fontStyle=0" parent="QpW0727UNLBQQFXdd8Zh-21" vertex="1">
          <mxGeometry x="30.315802323190894" width="219.6841976768091" height="30" as="geometry">
            <mxRectangle width="219.6841976768091" height="30" as="alternateBounds" />
          </mxGeometry>
        </mxCell>
        <mxCell id="QpW0727UNLBQQFXdd8Zh-24" value="" style="shape=partialRectangle;collapsible=0;dropTarget=0;pointerEvents=0;fillColor=none;points=[[0,0.5],[1,0.5]];portConstraint=eastwest;top=0;left=0;right=0;bottom=0;fontSize=14;fontStyle=0" parent="TQ3iEzF1nXxN9szr9kvA-42" vertex="1">
          <mxGeometry y="120" width="250" height="30" as="geometry" />
        </mxCell>
        <mxCell id="QpW0727UNLBQQFXdd8Zh-25" value="" style="shape=partialRectangle;overflow=hidden;connectable=0;fillColor=none;top=0;left=0;bottom=0;right=0;fontSize=14;fontStyle=0" parent="QpW0727UNLBQQFXdd8Zh-24" vertex="1">
          <mxGeometry width="30.315802323190894" height="30" as="geometry">
            <mxRectangle width="30.315802323190894" height="30" as="alternateBounds" />
          </mxGeometry>
        </mxCell>
        <mxCell id="QpW0727UNLBQQFXdd8Zh-26" value="Name" style="shape=partialRectangle;overflow=hidden;connectable=0;fillColor=none;top=0;left=0;bottom=0;right=0;align=left;spacingLeft=6;fontSize=14;fontStyle=0" parent="QpW0727UNLBQQFXdd8Zh-24" vertex="1">
          <mxGeometry x="30.315802323190894" width="219.6841976768091" height="30" as="geometry">
            <mxRectangle width="219.6841976768091" height="30" as="alternateBounds" />
          </mxGeometry>
        </mxCell>
        <mxCell id="QpW0727UNLBQQFXdd8Zh-27" value="" style="shape=partialRectangle;collapsible=0;dropTarget=0;pointerEvents=0;fillColor=none;points=[[0,0.5],[1,0.5]];portConstraint=eastwest;top=0;left=0;right=0;bottom=0;fontSize=14;fontStyle=0" parent="TQ3iEzF1nXxN9szr9kvA-42" vertex="1">
          <mxGeometry y="150" width="250" height="30" as="geometry" />
        </mxCell>
        <mxCell id="QpW0727UNLBQQFXdd8Zh-28" value="" style="shape=partialRectangle;overflow=hidden;connectable=0;fillColor=none;top=0;left=0;bottom=0;right=0;fontSize=14;fontStyle=0" parent="QpW0727UNLBQQFXdd8Zh-27" vertex="1">
          <mxGeometry width="30.315802323190894" height="30" as="geometry">
            <mxRectangle width="30.315802323190894" height="30" as="alternateBounds" />
          </mxGeometry>
        </mxCell>
        <mxCell id="QpW0727UNLBQQFXdd8Zh-29" value="Lat" style="shape=partialRectangle;overflow=hidden;connectable=0;fillColor=none;top=0;left=0;bottom=0;right=0;align=left;spacingLeft=6;fontSize=14;fontStyle=0" parent="QpW0727UNLBQQFXdd8Zh-27" vertex="1">
          <mxGeometry x="30.315802323190894" width="219.6841976768091" height="30" as="geometry">
            <mxRectangle width="219.6841976768091" height="30" as="alternateBounds" />
          </mxGeometry>
        </mxCell>
        <mxCell id="QpW0727UNLBQQFXdd8Zh-30" value="" style="shape=partialRectangle;collapsible=0;dropTarget=0;pointerEvents=0;fillColor=none;points=[[0,0.5],[1,0.5]];portConstraint=eastwest;top=0;left=0;right=0;bottom=0;fontSize=14;fontStyle=0" parent="TQ3iEzF1nXxN9szr9kvA-42" vertex="1">
          <mxGeometry y="180" width="250" height="30" as="geometry" />
        </mxCell>
        <mxCell id="QpW0727UNLBQQFXdd8Zh-31" value="" style="shape=partialRectangle;overflow=hidden;connectable=0;fillColor=none;top=0;left=0;bottom=0;right=0;fontSize=14;fontStyle=0" parent="QpW0727UNLBQQFXdd8Zh-30" vertex="1">
          <mxGeometry width="30.315802323190894" height="30" as="geometry">
            <mxRectangle width="30.315802323190894" height="30" as="alternateBounds" />
          </mxGeometry>
        </mxCell>
        <mxCell id="QpW0727UNLBQQFXdd8Zh-32" value="Lng" style="shape=partialRectangle;overflow=hidden;connectable=0;fillColor=none;top=0;left=0;bottom=0;right=0;align=left;spacingLeft=6;fontSize=14;fontStyle=0" parent="QpW0727UNLBQQFXdd8Zh-30" vertex="1">
          <mxGeometry x="30.315802323190894" width="219.6841976768091" height="30" as="geometry">
            <mxRectangle width="219.6841976768091" height="30" as="alternateBounds" />
          </mxGeometry>
        </mxCell>
        <mxCell id="TQ3iEzF1nXxN9szr9kvA-49" value="" style="shape=partialRectangle;collapsible=0;dropTarget=0;pointerEvents=0;fillColor=none;points=[[0,0.5],[1,0.5]];portConstraint=eastwest;top=0;left=0;right=0;bottom=0;fontSize=14;fontStyle=0" parent="TQ3iEzF1nXxN9szr9kvA-42" vertex="1">
          <mxGeometry y="210" width="250" height="30" as="geometry" />
        </mxCell>
        <mxCell id="TQ3iEzF1nXxN9szr9kvA-50" value="" style="shape=partialRectangle;overflow=hidden;connectable=0;fillColor=none;top=0;left=0;bottom=0;right=0;fontSize=14;fontStyle=0" parent="TQ3iEzF1nXxN9szr9kvA-49" vertex="1">
          <mxGeometry width="30.315802323190894" height="30" as="geometry">
            <mxRectangle width="30.315802323190894" height="30" as="alternateBounds" />
          </mxGeometry>
        </mxCell>
        <mxCell id="TQ3iEzF1nXxN9szr9kvA-51" value="MainDescription" style="shape=partialRectangle;overflow=hidden;connectable=0;fillColor=none;top=0;left=0;bottom=0;right=0;align=left;spacingLeft=6;fontSize=14;fontStyle=0" parent="TQ3iEzF1nXxN9szr9kvA-49" vertex="1">
          <mxGeometry x="30.315802323190894" width="219.6841976768091" height="30" as="geometry">
            <mxRectangle width="219.6841976768091" height="30" as="alternateBounds" />
          </mxGeometry>
        </mxCell>
        <mxCell id="TQ3iEzF1nXxN9szr9kvA-56" value="Countries" style="shape=table;startSize=30;container=1;collapsible=1;childLayout=tableLayout;fixedRows=1;rowLines=0;fontStyle=0;align=center;resizeLast=1;fontSize=14;spacing=2;" parent="1" vertex="1">
          <mxGeometry x="1104" y="80" width="250" height="240" as="geometry">
            <mxRectangle x="446" y="-517" width="58" height="30" as="alternateBounds" />
          </mxGeometry>
        </mxCell>
        <mxCell id="TQ3iEzF1nXxN9szr9kvA-57" value="" style="shape=partialRectangle;collapsible=0;dropTarget=0;pointerEvents=0;fillColor=none;points=[[0,0.5],[1,0.5]];portConstraint=eastwest;top=0;left=0;right=0;bottom=1;fontSize=14;fontStyle=0" parent="TQ3iEzF1nXxN9szr9kvA-56" vertex="1">
          <mxGeometry y="30" width="250" height="30" as="geometry" />
        </mxCell>
        <mxCell id="TQ3iEzF1nXxN9szr9kvA-58" value="PK" style="shape=partialRectangle;overflow=hidden;connectable=0;fillColor=none;top=0;left=0;bottom=0;right=0;fontStyle=0;fontSize=14;" parent="TQ3iEzF1nXxN9szr9kvA-57" vertex="1">
          <mxGeometry width="30" height="30" as="geometry">
            <mxRectangle width="30" height="30" as="alternateBounds" />
          </mxGeometry>
        </mxCell>
        <mxCell id="TQ3iEzF1nXxN9szr9kvA-59" value="ID" style="shape=partialRectangle;overflow=hidden;connectable=0;fillColor=none;top=0;left=0;bottom=0;right=0;align=left;spacingLeft=6;fontStyle=4;fontSize=14;" parent="TQ3iEzF1nXxN9szr9kvA-57" vertex="1">
          <mxGeometry x="30" width="220" height="30" as="geometry">
            <mxRectangle width="220" height="30" as="alternateBounds" />
          </mxGeometry>
        </mxCell>
        <mxCell id="TQ3iEzF1nXxN9szr9kvA-60" value="" style="shape=partialRectangle;collapsible=0;dropTarget=0;pointerEvents=0;fillColor=none;points=[[0,0.5],[1,0.5]];portConstraint=eastwest;top=0;left=0;right=0;bottom=0;fontSize=14;fontStyle=0" parent="TQ3iEzF1nXxN9szr9kvA-56" vertex="1">
          <mxGeometry y="60" width="250" height="30" as="geometry" />
        </mxCell>
        <mxCell id="TQ3iEzF1nXxN9szr9kvA-61" value="FK" style="shape=partialRectangle;overflow=hidden;connectable=0;fillColor=none;top=0;left=0;bottom=0;right=0;fontSize=14;fontStyle=0" parent="TQ3iEzF1nXxN9szr9kvA-60" vertex="1">
          <mxGeometry width="30" height="30" as="geometry">
            <mxRectangle width="30" height="30" as="alternateBounds" />
          </mxGeometry>
        </mxCell>
        <mxCell id="TQ3iEzF1nXxN9szr9kvA-62" value="RegionId" style="shape=partialRectangle;overflow=hidden;connectable=0;fillColor=none;top=0;left=0;bottom=0;right=0;align=left;spacingLeft=6;fontSize=14;fontStyle=0" parent="TQ3iEzF1nXxN9szr9kvA-60" vertex="1">
          <mxGeometry x="30" width="220" height="30" as="geometry">
            <mxRectangle width="220" height="30" as="alternateBounds" />
          </mxGeometry>
        </mxCell>
        <mxCell id="TQ3iEzF1nXxN9szr9kvA-69" value="" style="shape=partialRectangle;collapsible=0;dropTarget=0;pointerEvents=0;fillColor=none;points=[[0,0.5],[1,0.5]];portConstraint=eastwest;top=0;left=0;right=0;bottom=0;fontSize=14;fontStyle=0" parent="TQ3iEzF1nXxN9szr9kvA-56" vertex="1">
          <mxGeometry y="90" width="250" height="30" as="geometry" />
        </mxCell>
        <mxCell id="TQ3iEzF1nXxN9szr9kvA-70" value="" style="shape=partialRectangle;overflow=hidden;connectable=0;fillColor=none;top=0;left=0;bottom=0;right=0;fontSize=14;fontStyle=0" parent="TQ3iEzF1nXxN9szr9kvA-69" vertex="1">
          <mxGeometry width="30" height="30" as="geometry">
            <mxRectangle width="30" height="30" as="alternateBounds" />
          </mxGeometry>
        </mxCell>
        <mxCell id="TQ3iEzF1nXxN9szr9kvA-71" value="Name" style="shape=partialRectangle;overflow=hidden;connectable=0;fillColor=none;top=0;left=0;bottom=0;right=0;align=left;spacingLeft=6;fontSize=14;fontStyle=0" parent="TQ3iEzF1nXxN9szr9kvA-69" vertex="1">
          <mxGeometry x="30" width="220" height="30" as="geometry">
            <mxRectangle width="220" height="30" as="alternateBounds" />
          </mxGeometry>
        </mxCell>
        <mxCell id="QpW0727UNLBQQFXdd8Zh-2" value="" style="shape=partialRectangle;collapsible=0;dropTarget=0;pointerEvents=0;fillColor=none;points=[[0,0.5],[1,0.5]];portConstraint=eastwest;top=0;left=0;right=0;bottom=0;fontSize=14;fontStyle=0" parent="TQ3iEzF1nXxN9szr9kvA-56" vertex="1">
          <mxGeometry y="120" width="250" height="30" as="geometry" />
        </mxCell>
        <mxCell id="QpW0727UNLBQQFXdd8Zh-3" value="" style="shape=partialRectangle;overflow=hidden;connectable=0;fillColor=none;top=0;left=0;bottom=0;right=0;fontSize=14;fontStyle=0" parent="QpW0727UNLBQQFXdd8Zh-2" vertex="1">
          <mxGeometry width="30" height="30" as="geometry">
            <mxRectangle width="30" height="30" as="alternateBounds" />
          </mxGeometry>
        </mxCell>
        <mxCell id="QpW0727UNLBQQFXdd8Zh-4" value="Lat" style="shape=partialRectangle;overflow=hidden;connectable=0;fillColor=none;top=0;left=0;bottom=0;right=0;align=left;spacingLeft=6;fontSize=14;fontStyle=0" parent="QpW0727UNLBQQFXdd8Zh-2" vertex="1">
          <mxGeometry x="30" width="220" height="30" as="geometry">
            <mxRectangle width="220" height="30" as="alternateBounds" />
          </mxGeometry>
        </mxCell>
        <mxCell id="QpW0727UNLBQQFXdd8Zh-5" value="" style="shape=partialRectangle;collapsible=0;dropTarget=0;pointerEvents=0;fillColor=none;points=[[0,0.5],[1,0.5]];portConstraint=eastwest;top=0;left=0;right=0;bottom=0;fontSize=14;fontStyle=0" parent="TQ3iEzF1nXxN9szr9kvA-56" vertex="1">
          <mxGeometry y="150" width="250" height="30" as="geometry" />
        </mxCell>
        <mxCell id="QpW0727UNLBQQFXdd8Zh-6" value="" style="shape=partialRectangle;overflow=hidden;connectable=0;fillColor=none;top=0;left=0;bottom=0;right=0;fontSize=14;fontStyle=0" parent="QpW0727UNLBQQFXdd8Zh-5" vertex="1">
          <mxGeometry width="30" height="30" as="geometry">
            <mxRectangle width="30" height="30" as="alternateBounds" />
          </mxGeometry>
        </mxCell>
        <mxCell id="QpW0727UNLBQQFXdd8Zh-7" value="Lng" style="shape=partialRectangle;overflow=hidden;connectable=0;fillColor=none;top=0;left=0;bottom=0;right=0;align=left;spacingLeft=6;fontSize=14;fontStyle=0" parent="QpW0727UNLBQQFXdd8Zh-5" vertex="1">
          <mxGeometry x="30" width="220" height="30" as="geometry">
            <mxRectangle width="220" height="30" as="alternateBounds" />
          </mxGeometry>
        </mxCell>
        <mxCell id="QpW0727UNLBQQFXdd8Zh-8" value="" style="shape=partialRectangle;collapsible=0;dropTarget=0;pointerEvents=0;fillColor=none;points=[[0,0.5],[1,0.5]];portConstraint=eastwest;top=0;left=0;right=0;bottom=0;fontSize=14;fontStyle=0" parent="TQ3iEzF1nXxN9szr9kvA-56" vertex="1">
          <mxGeometry y="180" width="250" height="30" as="geometry" />
        </mxCell>
        <mxCell id="QpW0727UNLBQQFXdd8Zh-9" value="" style="shape=partialRectangle;overflow=hidden;connectable=0;fillColor=none;top=0;left=0;bottom=0;right=0;fontSize=14;fontStyle=0" parent="QpW0727UNLBQQFXdd8Zh-8" vertex="1">
          <mxGeometry width="30" height="30" as="geometry">
            <mxRectangle width="30" height="30" as="alternateBounds" />
          </mxGeometry>
        </mxCell>
        <mxCell id="QpW0727UNLBQQFXdd8Zh-10" value="MainDescription" style="shape=partialRectangle;overflow=hidden;connectable=0;fillColor=none;top=0;left=0;bottom=0;right=0;align=left;spacingLeft=6;fontSize=14;fontStyle=0" parent="QpW0727UNLBQQFXdd8Zh-8" vertex="1">
          <mxGeometry x="30" width="220" height="30" as="geometry">
            <mxRectangle width="220" height="30" as="alternateBounds" />
          </mxGeometry>
        </mxCell>
        <mxCell id="TQ3iEzF1nXxN9szr9kvA-63" value="" style="shape=partialRectangle;collapsible=0;dropTarget=0;pointerEvents=0;fillColor=none;points=[[0,0.5],[1,0.5]];portConstraint=eastwest;top=0;left=0;right=0;bottom=0;fontSize=14;fontStyle=0" parent="TQ3iEzF1nXxN9szr9kvA-56" vertex="1">
          <mxGeometry y="210" width="250" height="30" as="geometry" />
        </mxCell>
        <mxCell id="TQ3iEzF1nXxN9szr9kvA-64" value="" style="shape=partialRectangle;overflow=hidden;connectable=0;fillColor=none;top=0;left=0;bottom=0;right=0;fontSize=14;fontStyle=0" parent="TQ3iEzF1nXxN9szr9kvA-63" vertex="1">
          <mxGeometry width="30" height="30" as="geometry">
            <mxRectangle width="30" height="30" as="alternateBounds" />
          </mxGeometry>
        </mxCell>
        <mxCell id="TQ3iEzF1nXxN9szr9kvA-65" value="LevelOfDevelopment" style="shape=partialRectangle;overflow=hidden;connectable=0;fillColor=none;top=0;left=0;bottom=0;right=0;align=left;spacingLeft=6;fontSize=14;fontStyle=0" parent="TQ3iEzF1nXxN9szr9kvA-63" vertex="1">
          <mxGeometry x="30" width="220" height="30" as="geometry">
            <mxRectangle width="220" height="30" as="alternateBounds" />
          </mxGeometry>
        </mxCell>
        <mxCell id="TQ3iEzF1nXxN9szr9kvA-72" value="Regions" style="shape=table;startSize=30;container=1;collapsible=1;childLayout=tableLayout;fixedRows=1;rowLines=0;fontStyle=0;align=center;resizeLast=1;fontSize=14;spacing=2;" parent="1" vertex="1">
          <mxGeometry x="1104" y="-26" width="250" height="90" as="geometry">
            <mxRectangle x="446" y="-517" width="58" height="30" as="alternateBounds" />
          </mxGeometry>
        </mxCell>
        <mxCell id="TQ3iEzF1nXxN9szr9kvA-73" value="" style="shape=partialRectangle;collapsible=0;dropTarget=0;pointerEvents=0;fillColor=none;points=[[0,0.5],[1,0.5]];portConstraint=eastwest;top=0;left=0;right=0;bottom=1;fontSize=14;fontStyle=0" parent="TQ3iEzF1nXxN9szr9kvA-72" vertex="1">
          <mxGeometry y="30" width="250" height="30" as="geometry" />
        </mxCell>
        <mxCell id="TQ3iEzF1nXxN9szr9kvA-74" value="PK" style="shape=partialRectangle;overflow=hidden;connectable=0;fillColor=none;top=0;left=0;bottom=0;right=0;fontStyle=0;fontSize=14;" parent="TQ3iEzF1nXxN9szr9kvA-73" vertex="1">
          <mxGeometry width="30" height="30" as="geometry">
            <mxRectangle width="30" height="30" as="alternateBounds" />
          </mxGeometry>
        </mxCell>
        <mxCell id="TQ3iEzF1nXxN9szr9kvA-75" value="ID" style="shape=partialRectangle;overflow=hidden;connectable=0;fillColor=none;top=0;left=0;bottom=0;right=0;align=left;spacingLeft=6;fontStyle=4;fontSize=14;" parent="TQ3iEzF1nXxN9szr9kvA-73" vertex="1">
          <mxGeometry x="30" width="220" height="30" as="geometry">
            <mxRectangle width="220" height="30" as="alternateBounds" />
          </mxGeometry>
        </mxCell>
        <mxCell id="TQ3iEzF1nXxN9szr9kvA-79" value="" style="shape=partialRectangle;collapsible=0;dropTarget=0;pointerEvents=0;fillColor=none;points=[[0,0.5],[1,0.5]];portConstraint=eastwest;top=0;left=0;right=0;bottom=0;fontSize=14;fontStyle=0" parent="TQ3iEzF1nXxN9szr9kvA-72" vertex="1">
          <mxGeometry y="60" width="250" height="30" as="geometry" />
        </mxCell>
        <mxCell id="TQ3iEzF1nXxN9szr9kvA-80" value="" style="shape=partialRectangle;overflow=hidden;connectable=0;fillColor=none;top=0;left=0;bottom=0;right=0;fontSize=14;fontStyle=0" parent="TQ3iEzF1nXxN9szr9kvA-79" vertex="1">
          <mxGeometry width="30" height="30" as="geometry">
            <mxRectangle width="30" height="30" as="alternateBounds" />
          </mxGeometry>
        </mxCell>
        <mxCell id="TQ3iEzF1nXxN9szr9kvA-81" value="Name" style="shape=partialRectangle;overflow=hidden;connectable=0;fillColor=none;top=0;left=0;bottom=0;right=0;align=left;spacingLeft=6;fontSize=14;fontStyle=0" parent="TQ3iEzF1nXxN9szr9kvA-79" vertex="1">
          <mxGeometry x="30" width="220" height="30" as="geometry">
            <mxRectangle width="220" height="30" as="alternateBounds" />
          </mxGeometry>
        </mxCell>
        <mxCell id="TQ3iEzF1nXxN9szr9kvA-86" style="edgeStyle=orthogonalEdgeStyle;rounded=0;orthogonalLoop=1;jettySize=auto;html=1;endArrow=ERoneToMany;endFill=0;startArrow=ERone;startFill=0;endSize=8;startSize=8;fontSize=14;exitX=0;exitY=0.5;exitDx=0;exitDy=0;entryX=1;entryY=0.5;entryDx=0;entryDy=0;fontStyle=0" parent="1" source="TQ3iEzF1nXxN9szr9kvA-73" target="TQ3iEzF1nXxN9szr9kvA-60" edge="1">
          <mxGeometry relative="1" as="geometry">
            <mxPoint x="1367" y="39" as="sourcePoint" />
            <Array as="points">
              <mxPoint x="1085" y="19" />
              <mxPoint x="1085" y="71" />
              <mxPoint x="1378" y="71" />
              <mxPoint x="1378" y="154" />
              <mxPoint x="1354" y="154" />
            </Array>
            <mxPoint x="1382" y="168" as="targetPoint" />
          </mxGeometry>
        </mxCell>
        <mxCell id="TQ3iEzF1nXxN9szr9kvA-102" value="DepartmentDepartures" style="shape=table;startSize=30;container=1;collapsible=1;childLayout=tableLayout;fixedRows=1;rowLines=0;fontStyle=0;align=center;resizeLast=1;fontSize=14;spacing=2;" parent="1" vertex="1">
          <mxGeometry x="1104" y="-391" width="250" height="240" as="geometry">
            <mxRectangle x="446" y="-517" width="58" height="30" as="alternateBounds" />
          </mxGeometry>
        </mxCell>
        <mxCell id="TQ3iEzF1nXxN9szr9kvA-103" value="" style="shape=partialRectangle;collapsible=0;dropTarget=0;pointerEvents=0;fillColor=none;points=[[0,0.5],[1,0.5]];portConstraint=eastwest;top=0;left=0;right=0;bottom=1;fontSize=14;fontStyle=0" parent="TQ3iEzF1nXxN9szr9kvA-102" vertex="1">
          <mxGeometry y="30" width="250" height="30" as="geometry" />
        </mxCell>
        <mxCell id="TQ3iEzF1nXxN9szr9kvA-104" value="PK" style="shape=partialRectangle;overflow=hidden;connectable=0;fillColor=none;top=0;left=0;bottom=0;right=0;fontStyle=0;fontSize=14;" parent="TQ3iEzF1nXxN9szr9kvA-103" vertex="1">
          <mxGeometry width="30" height="30" as="geometry">
            <mxRectangle width="30" height="30" as="alternateBounds" />
          </mxGeometry>
        </mxCell>
        <mxCell id="TQ3iEzF1nXxN9szr9kvA-105" value="ID" style="shape=partialRectangle;overflow=hidden;connectable=0;fillColor=none;top=0;left=0;bottom=0;right=0;align=left;spacingLeft=6;fontStyle=4;fontSize=14;" parent="TQ3iEzF1nXxN9szr9kvA-103" vertex="1">
          <mxGeometry x="30" width="220" height="30" as="geometry">
            <mxRectangle width="220" height="30" as="alternateBounds" />
          </mxGeometry>
        </mxCell>
        <mxCell id="CeoSVahRU628ZsRBta8_-133" value="" style="shape=partialRectangle;collapsible=0;dropTarget=0;pointerEvents=0;fillColor=none;points=[[0,0.5],[1,0.5]];portConstraint=eastwest;top=0;left=0;right=0;bottom=0;fontSize=14;fontStyle=0" parent="TQ3iEzF1nXxN9szr9kvA-102" vertex="1">
          <mxGeometry y="60" width="250" height="30" as="geometry" />
        </mxCell>
        <mxCell id="CeoSVahRU628ZsRBta8_-134" value="FK" style="shape=partialRectangle;overflow=hidden;connectable=0;fillColor=none;top=0;left=0;bottom=0;right=0;fontSize=14;fontStyle=0" parent="CeoSVahRU628ZsRBta8_-133" vertex="1">
          <mxGeometry width="30" height="30" as="geometry">
            <mxRectangle width="30" height="30" as="alternateBounds" />
          </mxGeometry>
        </mxCell>
        <mxCell id="CeoSVahRU628ZsRBta8_-135" value="CityId" style="shape=partialRectangle;overflow=hidden;connectable=0;fillColor=none;top=0;left=0;bottom=0;right=0;align=left;spacingLeft=6;fontSize=14;fontStyle=0" parent="CeoSVahRU628ZsRBta8_-133" vertex="1">
          <mxGeometry x="30" width="220" height="30" as="geometry">
            <mxRectangle width="220" height="30" as="alternateBounds" />
          </mxGeometry>
        </mxCell>
        <mxCell id="TQ3iEzF1nXxN9szr9kvA-106" value="" style="shape=partialRectangle;collapsible=0;dropTarget=0;pointerEvents=0;fillColor=none;points=[[0,0.5],[1,0.5]];portConstraint=eastwest;top=0;left=0;right=0;bottom=0;fontSize=14;fontStyle=0" parent="TQ3iEzF1nXxN9szr9kvA-102" vertex="1">
          <mxGeometry y="90" width="250" height="30" as="geometry" />
        </mxCell>
        <mxCell id="TQ3iEzF1nXxN9szr9kvA-107" value="FK" style="shape=partialRectangle;overflow=hidden;connectable=0;fillColor=none;top=0;left=0;bottom=0;right=0;fontSize=14;fontStyle=0" parent="TQ3iEzF1nXxN9szr9kvA-106" vertex="1">
          <mxGeometry width="30" height="30" as="geometry">
            <mxRectangle width="30" height="30" as="alternateBounds" />
          </mxGeometry>
        </mxCell>
        <mxCell id="TQ3iEzF1nXxN9szr9kvA-108" value="TransportTypeId" style="shape=partialRectangle;overflow=hidden;connectable=0;fillColor=none;top=0;left=0;bottom=0;right=0;align=left;spacingLeft=6;fontSize=14;fontStyle=0" parent="TQ3iEzF1nXxN9szr9kvA-106" vertex="1">
          <mxGeometry x="30" width="220" height="30" as="geometry">
            <mxRectangle width="220" height="30" as="alternateBounds" />
          </mxGeometry>
        </mxCell>
        <mxCell id="CeoSVahRU628ZsRBta8_-136" value="" style="shape=partialRectangle;collapsible=0;dropTarget=0;pointerEvents=0;fillColor=none;points=[[0,0.5],[1,0.5]];portConstraint=eastwest;top=0;left=0;right=0;bottom=0;fontSize=14;fontStyle=0" parent="TQ3iEzF1nXxN9szr9kvA-102" vertex="1">
          <mxGeometry y="120" width="250" height="30" as="geometry" />
        </mxCell>
        <mxCell id="CeoSVahRU628ZsRBta8_-137" value="" style="shape=partialRectangle;overflow=hidden;connectable=0;fillColor=none;top=0;left=0;bottom=0;right=0;fontSize=14;fontStyle=0" parent="CeoSVahRU628ZsRBta8_-136" vertex="1">
          <mxGeometry width="30" height="30" as="geometry">
            <mxRectangle width="30" height="30" as="alternateBounds" />
          </mxGeometry>
        </mxCell>
        <mxCell id="CeoSVahRU628ZsRBta8_-138" value="Name" style="shape=partialRectangle;overflow=hidden;connectable=0;fillColor=none;top=0;left=0;bottom=0;right=0;align=left;spacingLeft=6;fontSize=14;fontStyle=0" parent="CeoSVahRU628ZsRBta8_-136" vertex="1">
          <mxGeometry x="30" width="220" height="30" as="geometry">
            <mxRectangle width="220" height="30" as="alternateBounds" />
          </mxGeometry>
        </mxCell>
        <mxCell id="CeoSVahRU628ZsRBta8_-139" value="" style="shape=partialRectangle;collapsible=0;dropTarget=0;pointerEvents=0;fillColor=none;points=[[0,0.5],[1,0.5]];portConstraint=eastwest;top=0;left=0;right=0;bottom=0;fontSize=14;fontStyle=0" parent="TQ3iEzF1nXxN9szr9kvA-102" vertex="1">
          <mxGeometry y="150" width="250" height="30" as="geometry" />
        </mxCell>
        <mxCell id="CeoSVahRU628ZsRBta8_-140" value="" style="shape=partialRectangle;overflow=hidden;connectable=0;fillColor=none;top=0;left=0;bottom=0;right=0;fontSize=14;fontStyle=0" parent="CeoSVahRU628ZsRBta8_-139" vertex="1">
          <mxGeometry width="30" height="30" as="geometry">
            <mxRectangle width="30" height="30" as="alternateBounds" />
          </mxGeometry>
        </mxCell>
        <mxCell id="CeoSVahRU628ZsRBta8_-141" value="Address" style="shape=partialRectangle;overflow=hidden;connectable=0;fillColor=none;top=0;left=0;bottom=0;right=0;align=left;spacingLeft=6;fontSize=14;fontStyle=0" parent="CeoSVahRU628ZsRBta8_-139" vertex="1">
          <mxGeometry x="30" width="220" height="30" as="geometry">
            <mxRectangle width="220" height="30" as="alternateBounds" />
          </mxGeometry>
        </mxCell>
        <mxCell id="CeoSVahRU628ZsRBta8_-142" value="" style="shape=partialRectangle;collapsible=0;dropTarget=0;pointerEvents=0;fillColor=none;points=[[0,0.5],[1,0.5]];portConstraint=eastwest;top=0;left=0;right=0;bottom=0;fontSize=14;fontStyle=0" parent="TQ3iEzF1nXxN9szr9kvA-102" vertex="1">
          <mxGeometry y="180" width="250" height="30" as="geometry" />
        </mxCell>
        <mxCell id="CeoSVahRU628ZsRBta8_-143" value="" style="shape=partialRectangle;overflow=hidden;connectable=0;fillColor=none;top=0;left=0;bottom=0;right=0;fontSize=14;fontStyle=0" parent="CeoSVahRU628ZsRBta8_-142" vertex="1">
          <mxGeometry width="30" height="30" as="geometry">
            <mxRectangle width="30" height="30" as="alternateBounds" />
          </mxGeometry>
        </mxCell>
        <mxCell id="CeoSVahRU628ZsRBta8_-144" value="Lat" style="shape=partialRectangle;overflow=hidden;connectable=0;fillColor=none;top=0;left=0;bottom=0;right=0;align=left;spacingLeft=6;fontSize=14;fontStyle=0" parent="CeoSVahRU628ZsRBta8_-142" vertex="1">
          <mxGeometry x="30" width="220" height="30" as="geometry">
            <mxRectangle width="220" height="30" as="alternateBounds" />
          </mxGeometry>
        </mxCell>
        <mxCell id="TQ3iEzF1nXxN9szr9kvA-109" value="" style="shape=partialRectangle;collapsible=0;dropTarget=0;pointerEvents=0;fillColor=none;points=[[0,0.5],[1,0.5]];portConstraint=eastwest;top=0;left=0;right=0;bottom=0;fontSize=14;fontStyle=0" parent="TQ3iEzF1nXxN9szr9kvA-102" vertex="1">
          <mxGeometry y="210" width="250" height="30" as="geometry" />
        </mxCell>
        <mxCell id="TQ3iEzF1nXxN9szr9kvA-110" value="" style="shape=partialRectangle;overflow=hidden;connectable=0;fillColor=none;top=0;left=0;bottom=0;right=0;fontSize=14;fontStyle=0" parent="TQ3iEzF1nXxN9szr9kvA-109" vertex="1">
          <mxGeometry width="30" height="30" as="geometry">
            <mxRectangle width="30" height="30" as="alternateBounds" />
          </mxGeometry>
        </mxCell>
        <mxCell id="TQ3iEzF1nXxN9szr9kvA-111" value="Lng" style="shape=partialRectangle;overflow=hidden;connectable=0;fillColor=none;top=0;left=0;bottom=0;right=0;align=left;spacingLeft=6;fontSize=14;fontStyle=0" parent="TQ3iEzF1nXxN9szr9kvA-109" vertex="1">
          <mxGeometry x="30" width="220" height="30" as="geometry">
            <mxRectangle width="220" height="30" as="alternateBounds" />
          </mxGeometry>
        </mxCell>
        <mxCell id="TQ3iEzF1nXxN9szr9kvA-113" value="Routes" style="shape=table;startSize=30;container=1;collapsible=1;childLayout=tableLayout;fixedRows=1;rowLines=0;fontStyle=0;align=center;resizeLast=1;fontSize=14;spacing=2;" parent="1" vertex="1">
          <mxGeometry x="1104" y="-717" width="250" height="300" as="geometry">
            <mxRectangle x="446" y="-517" width="58" height="30" as="alternateBounds" />
          </mxGeometry>
        </mxCell>
        <mxCell id="TQ3iEzF1nXxN9szr9kvA-114" value="" style="shape=partialRectangle;collapsible=0;dropTarget=0;pointerEvents=0;fillColor=none;points=[[0,0.5],[1,0.5]];portConstraint=eastwest;top=0;left=0;right=0;bottom=1;fontSize=14;fontStyle=0" parent="TQ3iEzF1nXxN9szr9kvA-113" vertex="1">
          <mxGeometry y="30" width="250" height="30" as="geometry" />
        </mxCell>
        <mxCell id="TQ3iEzF1nXxN9szr9kvA-115" value="PK" style="shape=partialRectangle;overflow=hidden;connectable=0;fillColor=none;top=0;left=0;bottom=0;right=0;fontStyle=0;fontSize=14;" parent="TQ3iEzF1nXxN9szr9kvA-114" vertex="1">
          <mxGeometry width="30" height="30" as="geometry">
            <mxRectangle width="30" height="30" as="alternateBounds" />
          </mxGeometry>
        </mxCell>
        <mxCell id="TQ3iEzF1nXxN9szr9kvA-116" value="ID" style="shape=partialRectangle;overflow=hidden;connectable=0;fillColor=none;top=0;left=0;bottom=0;right=0;align=left;spacingLeft=6;fontStyle=4;fontSize=14;" parent="TQ3iEzF1nXxN9szr9kvA-114" vertex="1">
          <mxGeometry x="30" width="220" height="30" as="geometry">
            <mxRectangle width="220" height="30" as="alternateBounds" />
          </mxGeometry>
        </mxCell>
        <mxCell id="TQ3iEzF1nXxN9szr9kvA-117" value="" style="shape=partialRectangle;collapsible=0;dropTarget=0;pointerEvents=0;fillColor=none;points=[[0,0.5],[1,0.5]];portConstraint=eastwest;top=0;left=0;right=0;bottom=0;fontSize=14;fontStyle=0" parent="TQ3iEzF1nXxN9szr9kvA-113" vertex="1">
          <mxGeometry y="60" width="250" height="30" as="geometry" />
        </mxCell>
        <mxCell id="TQ3iEzF1nXxN9szr9kvA-118" value="FK" style="shape=partialRectangle;overflow=hidden;connectable=0;fillColor=none;top=0;left=0;bottom=0;right=0;fontSize=14;fontStyle=0" parent="TQ3iEzF1nXxN9szr9kvA-117" vertex="1">
          <mxGeometry width="30" height="30" as="geometry">
            <mxRectangle width="30" height="30" as="alternateBounds" />
          </mxGeometry>
        </mxCell>
        <mxCell id="TQ3iEzF1nXxN9szr9kvA-119" value="TourId" style="shape=partialRectangle;overflow=hidden;connectable=0;fillColor=none;top=0;left=0;bottom=0;right=0;align=left;spacingLeft=6;fontSize=14;fontStyle=0" parent="TQ3iEzF1nXxN9szr9kvA-117" vertex="1">
          <mxGeometry x="30" width="220" height="30" as="geometry">
            <mxRectangle width="220" height="30" as="alternateBounds" />
          </mxGeometry>
        </mxCell>
        <mxCell id="TQ3iEzF1nXxN9szr9kvA-120" value="" style="shape=partialRectangle;collapsible=0;dropTarget=0;pointerEvents=0;fillColor=none;points=[[0,0.5],[1,0.5]];portConstraint=eastwest;top=0;left=0;right=0;bottom=0;fontSize=14;fontStyle=0" parent="TQ3iEzF1nXxN9szr9kvA-113" vertex="1">
          <mxGeometry y="90" width="250" height="30" as="geometry" />
        </mxCell>
        <mxCell id="TQ3iEzF1nXxN9szr9kvA-121" value="FK" style="shape=partialRectangle;overflow=hidden;connectable=0;fillColor=none;top=0;left=0;bottom=0;right=0;fontSize=14;fontStyle=0" parent="TQ3iEzF1nXxN9szr9kvA-120" vertex="1">
          <mxGeometry width="30" height="30" as="geometry">
            <mxRectangle width="30" height="30" as="alternateBounds" />
          </mxGeometry>
        </mxCell>
        <mxCell id="TQ3iEzF1nXxN9szr9kvA-122" value="DepartmentDepartureId" style="shape=partialRectangle;overflow=hidden;connectable=0;fillColor=none;top=0;left=0;bottom=0;right=0;align=left;spacingLeft=6;fontSize=14;fontStyle=0" parent="TQ3iEzF1nXxN9szr9kvA-120" vertex="1">
          <mxGeometry x="30" width="220" height="30" as="geometry">
            <mxRectangle width="220" height="30" as="alternateBounds" />
          </mxGeometry>
        </mxCell>
        <mxCell id="TQ3iEzF1nXxN9szr9kvA-126" value="" style="shape=partialRectangle;collapsible=0;dropTarget=0;pointerEvents=0;fillColor=none;points=[[0,0.5],[1,0.5]];portConstraint=eastwest;top=0;left=0;right=0;bottom=0;fontSize=14;fontStyle=0" parent="TQ3iEzF1nXxN9szr9kvA-113" vertex="1">
          <mxGeometry y="120" width="250" height="30" as="geometry" />
        </mxCell>
        <mxCell id="TQ3iEzF1nXxN9szr9kvA-127" value="" style="shape=partialRectangle;overflow=hidden;connectable=0;fillColor=none;top=0;left=0;bottom=0;right=0;fontSize=14;fontStyle=0" parent="TQ3iEzF1nXxN9szr9kvA-126" vertex="1">
          <mxGeometry width="30" height="30" as="geometry">
            <mxRectangle width="30" height="30" as="alternateBounds" />
          </mxGeometry>
        </mxCell>
        <mxCell id="TQ3iEzF1nXxN9szr9kvA-128" value="LandingDateAndTimeOfDeparture" style="shape=partialRectangle;overflow=hidden;connectable=0;fillColor=none;top=0;left=0;bottom=0;right=0;align=left;spacingLeft=6;fontSize=14;fontStyle=0" parent="TQ3iEzF1nXxN9szr9kvA-126" vertex="1">
          <mxGeometry x="30" width="220" height="30" as="geometry">
            <mxRectangle width="220" height="30" as="alternateBounds" />
          </mxGeometry>
        </mxCell>
        <mxCell id="TQ3iEzF1nXxN9szr9kvA-129" value="" style="shape=partialRectangle;collapsible=0;dropTarget=0;pointerEvents=0;fillColor=none;points=[[0,0.5],[1,0.5]];portConstraint=eastwest;top=0;left=0;right=0;bottom=0;fontSize=14;fontStyle=0" parent="TQ3iEzF1nXxN9szr9kvA-113" vertex="1">
          <mxGeometry y="150" width="250" height="30" as="geometry" />
        </mxCell>
        <mxCell id="TQ3iEzF1nXxN9szr9kvA-130" value="" style="shape=partialRectangle;overflow=hidden;connectable=0;fillColor=none;top=0;left=0;bottom=0;right=0;fontSize=14;fontStyle=0" parent="TQ3iEzF1nXxN9szr9kvA-129" vertex="1">
          <mxGeometry width="30" height="30" as="geometry">
            <mxRectangle width="30" height="30" as="alternateBounds" />
          </mxGeometry>
        </mxCell>
        <mxCell id="TQ3iEzF1nXxN9szr9kvA-131" value="ArrivalDateAndTimeOfDeparture" style="shape=partialRectangle;overflow=hidden;connectable=0;fillColor=none;top=0;left=0;bottom=0;right=0;align=left;spacingLeft=6;fontSize=14;fontStyle=0" parent="TQ3iEzF1nXxN9szr9kvA-129" vertex="1">
          <mxGeometry x="30" width="220" height="30" as="geometry">
            <mxRectangle width="220" height="30" as="alternateBounds" />
          </mxGeometry>
        </mxCell>
        <mxCell id="TQ3iEzF1nXxN9szr9kvA-142" value="" style="shape=partialRectangle;collapsible=0;dropTarget=0;pointerEvents=0;fillColor=none;points=[[0,0.5],[1,0.5]];portConstraint=eastwest;top=0;left=0;right=0;bottom=0;fontSize=14;fontStyle=0" parent="TQ3iEzF1nXxN9szr9kvA-113" vertex="1">
          <mxGeometry y="180" width="250" height="30" as="geometry" />
        </mxCell>
        <mxCell id="TQ3iEzF1nXxN9szr9kvA-143" value="" style="shape=partialRectangle;overflow=hidden;connectable=0;fillColor=none;top=0;left=0;bottom=0;right=0;fontSize=14;fontStyle=0" parent="TQ3iEzF1nXxN9szr9kvA-142" vertex="1">
          <mxGeometry width="30" height="30" as="geometry">
            <mxRectangle width="30" height="30" as="alternateBounds" />
          </mxGeometry>
        </mxCell>
        <mxCell id="TQ3iEzF1nXxN9szr9kvA-144" value="LandingDateAndTimeOfReturn" style="shape=partialRectangle;overflow=hidden;connectable=0;fillColor=none;top=0;left=0;bottom=0;right=0;align=left;spacingLeft=6;fontSize=14;fontStyle=0" parent="TQ3iEzF1nXxN9szr9kvA-142" vertex="1">
          <mxGeometry x="30" width="220" height="30" as="geometry">
            <mxRectangle width="220" height="30" as="alternateBounds" />
          </mxGeometry>
        </mxCell>
        <mxCell id="TQ3iEzF1nXxN9szr9kvA-139" value="" style="shape=partialRectangle;collapsible=0;dropTarget=0;pointerEvents=0;fillColor=none;points=[[0,0.5],[1,0.5]];portConstraint=eastwest;top=0;left=0;right=0;bottom=0;fontSize=14;fontStyle=0" parent="TQ3iEzF1nXxN9szr9kvA-113" vertex="1">
          <mxGeometry y="210" width="250" height="30" as="geometry" />
        </mxCell>
        <mxCell id="TQ3iEzF1nXxN9szr9kvA-140" value="" style="shape=partialRectangle;overflow=hidden;connectable=0;fillColor=none;top=0;left=0;bottom=0;right=0;fontSize=14;fontStyle=0" parent="TQ3iEzF1nXxN9szr9kvA-139" vertex="1">
          <mxGeometry width="30" height="30" as="geometry">
            <mxRectangle width="30" height="30" as="alternateBounds" />
          </mxGeometry>
        </mxCell>
        <mxCell id="TQ3iEzF1nXxN9szr9kvA-141" value="ArrivalDateAndTimeOfReturn" style="shape=partialRectangle;overflow=hidden;connectable=0;fillColor=none;top=0;left=0;bottom=0;right=0;align=left;spacingLeft=6;fontSize=14;fontStyle=0" parent="TQ3iEzF1nXxN9szr9kvA-139" vertex="1">
          <mxGeometry x="30" width="220" height="30" as="geometry">
            <mxRectangle width="220" height="30" as="alternateBounds" />
          </mxGeometry>
        </mxCell>
        <mxCell id="TQ3iEzF1nXxN9szr9kvA-154" value="" style="shape=partialRectangle;collapsible=0;dropTarget=0;pointerEvents=0;fillColor=none;points=[[0,0.5],[1,0.5]];portConstraint=eastwest;top=0;left=0;right=0;bottom=0;fontSize=14;fontStyle=0" parent="TQ3iEzF1nXxN9szr9kvA-113" vertex="1">
          <mxGeometry y="240" width="250" height="30" as="geometry" />
        </mxCell>
        <mxCell id="TQ3iEzF1nXxN9szr9kvA-155" value="" style="shape=partialRectangle;overflow=hidden;connectable=0;fillColor=none;top=0;left=0;bottom=0;right=0;fontSize=14;fontStyle=0" parent="TQ3iEzF1nXxN9szr9kvA-154" vertex="1">
          <mxGeometry width="30" height="30" as="geometry">
            <mxRectangle width="30" height="30" as="alternateBounds" />
          </mxGeometry>
        </mxCell>
        <mxCell id="TQ3iEzF1nXxN9szr9kvA-156" value="Price" style="shape=partialRectangle;overflow=hidden;connectable=0;fillColor=none;top=0;left=0;bottom=0;right=0;align=left;spacingLeft=6;fontSize=14;fontStyle=0" parent="TQ3iEzF1nXxN9szr9kvA-154" vertex="1">
          <mxGeometry x="30" width="220" height="30" as="geometry">
            <mxRectangle width="220" height="30" as="alternateBounds" />
          </mxGeometry>
        </mxCell>
        <mxCell id="TQ3iEzF1nXxN9szr9kvA-132" value="" style="shape=partialRectangle;collapsible=0;dropTarget=0;pointerEvents=0;fillColor=none;points=[[0,0.5],[1,0.5]];portConstraint=eastwest;top=0;left=0;right=0;bottom=0;fontSize=14;fontStyle=0" parent="TQ3iEzF1nXxN9szr9kvA-113" vertex="1">
          <mxGeometry y="270" width="250" height="30" as="geometry" />
        </mxCell>
        <mxCell id="TQ3iEzF1nXxN9szr9kvA-133" value="" style="shape=partialRectangle;overflow=hidden;connectable=0;fillColor=none;top=0;left=0;bottom=0;right=0;fontSize=14;fontStyle=0" parent="TQ3iEzF1nXxN9szr9kvA-132" vertex="1">
          <mxGeometry width="30" height="30" as="geometry">
            <mxRectangle width="30" height="30" as="alternateBounds" />
          </mxGeometry>
        </mxCell>
        <mxCell id="TQ3iEzF1nXxN9szr9kvA-134" value="SeatsNumber" style="shape=partialRectangle;overflow=hidden;connectable=0;fillColor=none;top=0;left=0;bottom=0;right=0;align=left;spacingLeft=6;fontSize=14;fontStyle=0" parent="TQ3iEzF1nXxN9szr9kvA-132" vertex="1">
          <mxGeometry x="30" width="220" height="30" as="geometry">
            <mxRectangle width="220" height="30" as="alternateBounds" />
          </mxGeometry>
        </mxCell>
        <mxCell id="TQ3iEzF1nXxN9szr9kvA-159" value="TransportTypes" style="shape=table;startSize=30;container=1;collapsible=1;childLayout=tableLayout;fixedRows=1;rowLines=0;fontStyle=0;align=center;resizeLast=1;fontSize=14;spacing=2;" parent="1" vertex="1">
          <mxGeometry x="1104" y="-131" width="250" height="90" as="geometry">
            <mxRectangle x="446" y="-517" width="58" height="30" as="alternateBounds" />
          </mxGeometry>
        </mxCell>
        <mxCell id="TQ3iEzF1nXxN9szr9kvA-160" value="" style="shape=partialRectangle;collapsible=0;dropTarget=0;pointerEvents=0;fillColor=none;points=[[0,0.5],[1,0.5]];portConstraint=eastwest;top=0;left=0;right=0;bottom=1;fontSize=14;fontStyle=0" parent="TQ3iEzF1nXxN9szr9kvA-159" vertex="1">
          <mxGeometry y="30" width="250" height="30" as="geometry" />
        </mxCell>
        <mxCell id="TQ3iEzF1nXxN9szr9kvA-161" value="PK" style="shape=partialRectangle;overflow=hidden;connectable=0;fillColor=none;top=0;left=0;bottom=0;right=0;fontStyle=0;fontSize=14;" parent="TQ3iEzF1nXxN9szr9kvA-160" vertex="1">
          <mxGeometry width="30" height="30" as="geometry">
            <mxRectangle width="30" height="30" as="alternateBounds" />
          </mxGeometry>
        </mxCell>
        <mxCell id="TQ3iEzF1nXxN9szr9kvA-162" value="ID" style="shape=partialRectangle;overflow=hidden;connectable=0;fillColor=none;top=0;left=0;bottom=0;right=0;align=left;spacingLeft=6;fontStyle=4;fontSize=14;" parent="TQ3iEzF1nXxN9szr9kvA-160" vertex="1">
          <mxGeometry x="30" width="220" height="30" as="geometry">
            <mxRectangle width="220" height="30" as="alternateBounds" />
          </mxGeometry>
        </mxCell>
        <mxCell id="TQ3iEzF1nXxN9szr9kvA-163" value="" style="shape=partialRectangle;collapsible=0;dropTarget=0;pointerEvents=0;fillColor=none;points=[[0,0.5],[1,0.5]];portConstraint=eastwest;top=0;left=0;right=0;bottom=0;fontSize=14;fontStyle=0" parent="TQ3iEzF1nXxN9szr9kvA-159" vertex="1">
          <mxGeometry y="60" width="250" height="30" as="geometry" />
        </mxCell>
        <mxCell id="TQ3iEzF1nXxN9szr9kvA-164" value="" style="shape=partialRectangle;overflow=hidden;connectable=0;fillColor=none;top=0;left=0;bottom=0;right=0;fontSize=14;fontStyle=0" parent="TQ3iEzF1nXxN9szr9kvA-163" vertex="1">
          <mxGeometry width="30" height="30" as="geometry">
            <mxRectangle width="30" height="30" as="alternateBounds" />
          </mxGeometry>
        </mxCell>
        <mxCell id="TQ3iEzF1nXxN9szr9kvA-165" value="Name" style="shape=partialRectangle;overflow=hidden;connectable=0;fillColor=none;top=0;left=0;bottom=0;right=0;align=left;spacingLeft=6;fontSize=14;fontStyle=0" parent="TQ3iEzF1nXxN9szr9kvA-163" vertex="1">
          <mxGeometry x="30" width="220" height="30" as="geometry">
            <mxRectangle width="220" height="30" as="alternateBounds" />
          </mxGeometry>
        </mxCell>
        <mxCell id="TQ3iEzF1nXxN9szr9kvA-177" value="Roles" style="shape=table;startSize=30;container=1;collapsible=1;childLayout=tableLayout;fixedRows=1;rowLines=0;fontStyle=0;align=center;resizeLast=1;fontSize=14;spacing=2;" parent="1" vertex="1">
          <mxGeometry x="-265.08" y="-497" width="250" height="90" as="geometry" />
        </mxCell>
        <mxCell id="TQ3iEzF1nXxN9szr9kvA-178" value="" style="shape=partialRectangle;collapsible=0;dropTarget=0;pointerEvents=0;fillColor=none;points=[[0,0.5],[1,0.5]];portConstraint=eastwest;top=0;left=0;right=0;bottom=1;fontSize=14;fontStyle=0" parent="TQ3iEzF1nXxN9szr9kvA-177" vertex="1">
          <mxGeometry y="30" width="250" height="30" as="geometry" />
        </mxCell>
        <mxCell id="TQ3iEzF1nXxN9szr9kvA-179" value="PK" style="shape=partialRectangle;overflow=hidden;connectable=0;fillColor=none;top=0;left=0;bottom=0;right=0;fontStyle=0;fontSize=14;" parent="TQ3iEzF1nXxN9szr9kvA-178" vertex="1">
          <mxGeometry width="30" height="30" as="geometry">
            <mxRectangle width="30" height="30" as="alternateBounds" />
          </mxGeometry>
        </mxCell>
        <mxCell id="TQ3iEzF1nXxN9szr9kvA-180" value="ID" style="shape=partialRectangle;overflow=hidden;connectable=0;fillColor=none;top=0;left=0;bottom=0;right=0;align=left;spacingLeft=6;fontStyle=4;fontSize=14;" parent="TQ3iEzF1nXxN9szr9kvA-178" vertex="1">
          <mxGeometry x="30" width="220" height="30" as="geometry">
            <mxRectangle width="220" height="30" as="alternateBounds" />
          </mxGeometry>
        </mxCell>
        <mxCell id="TQ3iEzF1nXxN9szr9kvA-181" value="" style="shape=partialRectangle;collapsible=0;dropTarget=0;pointerEvents=0;fillColor=none;points=[[0,0.5],[1,0.5]];portConstraint=eastwest;top=0;left=0;right=0;bottom=0;fontSize=14;fontStyle=0" parent="TQ3iEzF1nXxN9szr9kvA-177" vertex="1">
          <mxGeometry y="60" width="250" height="30" as="geometry" />
        </mxCell>
        <mxCell id="TQ3iEzF1nXxN9szr9kvA-182" value="" style="shape=partialRectangle;overflow=hidden;connectable=0;fillColor=none;top=0;left=0;bottom=0;right=0;fontSize=14;fontStyle=0" parent="TQ3iEzF1nXxN9szr9kvA-181" vertex="1">
          <mxGeometry width="30" height="30" as="geometry">
            <mxRectangle width="30" height="30" as="alternateBounds" />
          </mxGeometry>
        </mxCell>
        <mxCell id="TQ3iEzF1nXxN9szr9kvA-183" value="Name" style="shape=partialRectangle;overflow=hidden;connectable=0;fillColor=none;top=0;left=0;bottom=0;right=0;align=left;spacingLeft=6;fontSize=14;fontStyle=0" parent="TQ3iEzF1nXxN9szr9kvA-181" vertex="1">
          <mxGeometry x="30" width="220" height="30" as="geometry">
            <mxRectangle width="220" height="30" as="alternateBounds" />
          </mxGeometry>
        </mxCell>
        <mxCell id="TQ3iEzF1nXxN9szr9kvA-184" style="edgeStyle=orthogonalEdgeStyle;rounded=0;orthogonalLoop=1;jettySize=auto;html=1;exitX=0;exitY=0.5;exitDx=0;exitDy=0;entryX=0;entryY=0.5;entryDx=0;entryDy=0;startArrow=ERoneToMany;startFill=0;endArrow=ERone;endFill=0;endSize=8;startSize=8;fontSize=14;fontStyle=0" parent="1" source="TY1T0JL2RWbXBVbh2Ho9-24" target="TQ3iEzF1nXxN9szr9kvA-178" edge="1">
          <mxGeometry relative="1" as="geometry">
            <Array as="points">
              <mxPoint x="-332" y="-272" />
              <mxPoint x="-332" y="-452" />
            </Array>
          </mxGeometry>
        </mxCell>
        <mxCell id="OSEbGXMiWEGswDXjpjbX-1" value="Reviews" style="shape=table;startSize=30;container=1;collapsible=1;childLayout=tableLayout;fixedRows=1;rowLines=0;fontStyle=0;align=center;resizeLast=1;fontSize=14;spacing=2;" parent="1" vertex="1">
          <mxGeometry x="76" y="-577" width="250" height="150" as="geometry" />
        </mxCell>
        <mxCell id="OSEbGXMiWEGswDXjpjbX-2" value="" style="shape=partialRectangle;collapsible=0;dropTarget=0;pointerEvents=0;fillColor=none;points=[[0,0.5],[1,0.5]];portConstraint=eastwest;top=0;left=0;right=0;bottom=1;fontSize=14;fontStyle=0" parent="OSEbGXMiWEGswDXjpjbX-1" vertex="1">
          <mxGeometry y="30" width="250" height="30" as="geometry" />
        </mxCell>
        <mxCell id="OSEbGXMiWEGswDXjpjbX-3" value="PK" style="shape=partialRectangle;overflow=hidden;connectable=0;fillColor=none;top=0;left=0;bottom=0;right=0;fontStyle=0;fontSize=14;" parent="OSEbGXMiWEGswDXjpjbX-2" vertex="1">
          <mxGeometry width="30" height="30" as="geometry">
            <mxRectangle width="30" height="30" as="alternateBounds" />
          </mxGeometry>
        </mxCell>
        <mxCell id="OSEbGXMiWEGswDXjpjbX-4" value="ID" style="shape=partialRectangle;overflow=hidden;connectable=0;fillColor=none;top=0;left=0;bottom=0;right=0;align=left;spacingLeft=6;fontStyle=4;fontSize=14;" parent="OSEbGXMiWEGswDXjpjbX-2" vertex="1">
          <mxGeometry x="30" width="220" height="30" as="geometry">
            <mxRectangle width="220" height="30" as="alternateBounds" />
          </mxGeometry>
        </mxCell>
        <mxCell id="OSEbGXMiWEGswDXjpjbX-5" value="" style="shape=partialRectangle;collapsible=0;dropTarget=0;pointerEvents=0;fillColor=none;points=[[0,0.5],[1,0.5]];portConstraint=eastwest;top=0;left=0;right=0;bottom=0;fontSize=14;fontStyle=0" parent="OSEbGXMiWEGswDXjpjbX-1" vertex="1">
          <mxGeometry y="60" width="250" height="30" as="geometry" />
        </mxCell>
        <mxCell id="OSEbGXMiWEGswDXjpjbX-6" value="FK" style="shape=partialRectangle;overflow=hidden;connectable=0;fillColor=none;top=0;left=0;bottom=0;right=0;fontSize=14;fontStyle=0" parent="OSEbGXMiWEGswDXjpjbX-5" vertex="1">
          <mxGeometry width="30" height="30" as="geometry">
            <mxRectangle width="30" height="30" as="alternateBounds" />
          </mxGeometry>
        </mxCell>
        <mxCell id="OSEbGXMiWEGswDXjpjbX-7" value="UserId" style="shape=partialRectangle;overflow=hidden;connectable=0;fillColor=none;top=0;left=0;bottom=0;right=0;align=left;spacingLeft=6;fontSize=14;fontStyle=0" parent="OSEbGXMiWEGswDXjpjbX-5" vertex="1">
          <mxGeometry x="30" width="220" height="30" as="geometry">
            <mxRectangle width="220" height="30" as="alternateBounds" />
          </mxGeometry>
        </mxCell>
        <mxCell id="OSEbGXMiWEGswDXjpjbX-12" value="" style="shape=partialRectangle;collapsible=0;dropTarget=0;pointerEvents=0;fillColor=none;points=[[0,0.5],[1,0.5]];portConstraint=eastwest;top=0;left=0;right=0;bottom=0;fontSize=14;fontStyle=0" parent="OSEbGXMiWEGswDXjpjbX-1" vertex="1">
          <mxGeometry y="90" width="250" height="30" as="geometry" />
        </mxCell>
        <mxCell id="OSEbGXMiWEGswDXjpjbX-13" value="FK" style="shape=partialRectangle;overflow=hidden;connectable=0;fillColor=none;top=0;left=0;bottom=0;right=0;fontSize=14;fontStyle=0" parent="OSEbGXMiWEGswDXjpjbX-12" vertex="1">
          <mxGeometry width="30" height="30" as="geometry">
            <mxRectangle width="30" height="30" as="alternateBounds" />
          </mxGeometry>
        </mxCell>
        <mxCell id="OSEbGXMiWEGswDXjpjbX-14" value="TourId" style="shape=partialRectangle;overflow=hidden;connectable=0;fillColor=none;top=0;left=0;bottom=0;right=0;align=left;spacingLeft=6;fontSize=14;fontStyle=0" parent="OSEbGXMiWEGswDXjpjbX-12" vertex="1">
          <mxGeometry x="30" width="220" height="30" as="geometry">
            <mxRectangle width="220" height="30" as="alternateBounds" />
          </mxGeometry>
        </mxCell>
        <mxCell id="OSEbGXMiWEGswDXjpjbX-8" value="" style="shape=partialRectangle;collapsible=0;dropTarget=0;pointerEvents=0;fillColor=none;points=[[0,0.5],[1,0.5]];portConstraint=eastwest;top=0;left=0;right=0;bottom=0;fontSize=14;fontStyle=0" parent="OSEbGXMiWEGswDXjpjbX-1" vertex="1">
          <mxGeometry y="120" width="250" height="30" as="geometry" />
        </mxCell>
        <mxCell id="OSEbGXMiWEGswDXjpjbX-9" value="" style="shape=partialRectangle;overflow=hidden;connectable=0;fillColor=none;top=0;left=0;bottom=0;right=0;fontSize=14;fontStyle=0" parent="OSEbGXMiWEGswDXjpjbX-8" vertex="1">
          <mxGeometry width="30" height="30" as="geometry">
            <mxRectangle width="30" height="30" as="alternateBounds" />
          </mxGeometry>
        </mxCell>
        <mxCell id="OSEbGXMiWEGswDXjpjbX-10" value="ReviewText" style="shape=partialRectangle;overflow=hidden;connectable=0;fillColor=none;top=0;left=0;bottom=0;right=0;align=left;spacingLeft=6;fontSize=14;fontStyle=0" parent="OSEbGXMiWEGswDXjpjbX-8" vertex="1">
          <mxGeometry x="30" width="220" height="30" as="geometry">
            <mxRectangle width="220" height="30" as="alternateBounds" />
          </mxGeometry>
        </mxCell>
        <mxCell id="OSEbGXMiWEGswDXjpjbX-15" style="edgeStyle=orthogonalEdgeStyle;rounded=0;orthogonalLoop=1;jettySize=auto;html=1;exitX=1;exitY=0.5;exitDx=0;exitDy=0;entryX=0;entryY=0.5;entryDx=0;entryDy=0;endArrow=ERone;endFill=0;startArrow=ERoneToMany;startFill=0;endSize=8;startSize=8;fontStyle=0" parent="1" source="OSEbGXMiWEGswDXjpjbX-12" target="TY1T0JL2RWbXBVbh2Ho9-84" edge="1">
          <mxGeometry relative="1" as="geometry">
            <Array as="points">
              <mxPoint x="408" y="-472" />
              <mxPoint x="408" y="-676" />
            </Array>
          </mxGeometry>
        </mxCell>
        <mxCell id="OSEbGXMiWEGswDXjpjbX-16" style="edgeStyle=orthogonalEdgeStyle;rounded=0;orthogonalLoop=1;jettySize=auto;html=1;exitX=0;exitY=0.5;exitDx=0;exitDy=0;entryX=0;entryY=0.5;entryDx=0;entryDy=0;endArrow=ERone;endFill=0;startArrow=ERoneToMany;startFill=0;startSize=8;endSize=8;fontStyle=0" parent="1" source="OSEbGXMiWEGswDXjpjbX-1" target="TY1T0JL2RWbXBVbh2Ho9-2" edge="1">
          <mxGeometry relative="1" as="geometry">
            <Array as="points">
              <mxPoint x="45" y="-502" />
              <mxPoint x="45" y="-369" />
              <mxPoint x="-304" y="-369" />
              <mxPoint x="-304" y="-302" />
            </Array>
          </mxGeometry>
        </mxCell>
        <mxCell id="CeoSVahRU628ZsRBta8_-17" style="edgeStyle=orthogonalEdgeStyle;rounded=0;orthogonalLoop=1;jettySize=auto;html=1;fontSize=12;startSize=8;endSize=8;exitX=0;exitY=0.5;exitDx=0;exitDy=0;endArrow=ERoneToMany;endFill=0;startArrow=ERone;startFill=0;entryX=-0.003;entryY=0.537;entryDx=0;entryDy=0;entryPerimeter=0;fontStyle=0" parent="1" source="TQ3iEzF1nXxN9szr9kvA-43" target="TQ3iEzF1nXxN9szr9kvA-32" edge="1">
          <mxGeometry relative="1" as="geometry">
            <mxPoint x="414" y="-127" as="targetPoint" />
            <Array as="points">
              <mxPoint x="379" y="143" />
              <mxPoint x="379" y="84" />
              <mxPoint x="746" y="84" />
              <mxPoint x="746" y="-93" />
            </Array>
          </mxGeometry>
        </mxCell>
        <mxCell id="CeoSVahRU628ZsRBta8_-29" style="edgeStyle=orthogonalEdgeStyle;rounded=0;orthogonalLoop=1;jettySize=auto;html=1;exitX=1;exitY=0.5;exitDx=0;exitDy=0;entryX=0;entryY=0.5;entryDx=0;entryDy=0;fontSize=12;startSize=8;endSize=8;endArrow=ERone;endFill=0;startArrow=ERoneToMany;startFill=0;fontStyle=0" parent="1" source="TQ3iEzF1nXxN9szr9kvA-46" target="TQ3iEzF1nXxN9szr9kvA-57" edge="1">
          <mxGeometry relative="1" as="geometry">
            <Array as="points">
              <mxPoint x="1084" y="173" />
              <mxPoint x="1084" y="125" />
            </Array>
          </mxGeometry>
        </mxCell>
        <mxCell id="CeoSVahRU628ZsRBta8_-30" value="HotelCharacteristics" style="shape=table;startSize=30;container=1;collapsible=1;childLayout=tableLayout;fixedRows=1;rowLines=0;fontStyle=0;align=center;resizeLast=1;fontSize=14;spacing=2;" parent="1" vertex="1">
          <mxGeometry x="447" y="-273" width="250" height="90" as="geometry" />
        </mxCell>
        <mxCell id="CeoSVahRU628ZsRBta8_-31" value="" style="shape=partialRectangle;collapsible=0;dropTarget=0;pointerEvents=0;fillColor=none;points=[[0,0.5],[1,0.5]];portConstraint=eastwest;top=0;left=0;right=0;bottom=1;fontSize=14;fontStyle=0" parent="CeoSVahRU628ZsRBta8_-30" vertex="1">
          <mxGeometry y="30" width="250" height="30" as="geometry" />
        </mxCell>
        <mxCell id="CeoSVahRU628ZsRBta8_-32" value="PK" style="shape=partialRectangle;overflow=hidden;connectable=0;fillColor=none;top=0;left=0;bottom=0;right=0;fontStyle=0;fontSize=14;" parent="CeoSVahRU628ZsRBta8_-31" vertex="1">
          <mxGeometry width="30" height="30" as="geometry">
            <mxRectangle width="30" height="30" as="alternateBounds" />
          </mxGeometry>
        </mxCell>
        <mxCell id="CeoSVahRU628ZsRBta8_-33" value="ID" style="shape=partialRectangle;overflow=hidden;connectable=0;fillColor=none;top=0;left=0;bottom=0;right=0;align=left;spacingLeft=6;fontStyle=4;fontSize=14;" parent="CeoSVahRU628ZsRBta8_-31" vertex="1">
          <mxGeometry x="30" width="220" height="30" as="geometry">
            <mxRectangle width="220" height="30" as="alternateBounds" />
          </mxGeometry>
        </mxCell>
        <mxCell id="CeoSVahRU628ZsRBta8_-37" value="" style="shape=partialRectangle;collapsible=0;dropTarget=0;pointerEvents=0;fillColor=none;points=[[0,0.5],[1,0.5]];portConstraint=eastwest;top=0;left=0;right=0;bottom=0;fontSize=14;fontStyle=0" parent="CeoSVahRU628ZsRBta8_-30" vertex="1">
          <mxGeometry y="60" width="250" height="30" as="geometry" />
        </mxCell>
        <mxCell id="CeoSVahRU628ZsRBta8_-38" value="" style="shape=partialRectangle;overflow=hidden;connectable=0;fillColor=none;top=0;left=0;bottom=0;right=0;fontSize=14;fontStyle=0" parent="CeoSVahRU628ZsRBta8_-37" vertex="1">
          <mxGeometry width="30" height="30" as="geometry">
            <mxRectangle width="30" height="30" as="alternateBounds" />
          </mxGeometry>
        </mxCell>
        <mxCell id="CeoSVahRU628ZsRBta8_-39" value="Name" style="shape=partialRectangle;overflow=hidden;connectable=0;fillColor=none;top=0;left=0;bottom=0;right=0;align=left;spacingLeft=6;fontSize=14;fontStyle=0" parent="CeoSVahRU628ZsRBta8_-37" vertex="1">
          <mxGeometry x="30" width="220" height="30" as="geometry">
            <mxRectangle width="220" height="30" as="alternateBounds" />
          </mxGeometry>
        </mxCell>
        <mxCell id="CeoSVahRU628ZsRBta8_-43" value="HotelDescriptions" style="shape=table;startSize=30;container=1;collapsible=1;childLayout=tableLayout;fixedRows=1;rowLines=0;fontStyle=0;align=center;resizeLast=1;fontSize=14;spacing=2;" parent="1" vertex="1">
          <mxGeometry x="403" y="-157" width="250" height="120" as="geometry" />
        </mxCell>
        <mxCell id="CeoSVahRU628ZsRBta8_-44" value="" style="shape=partialRectangle;collapsible=0;dropTarget=0;pointerEvents=0;fillColor=none;points=[[0,0.5],[1,0.5]];portConstraint=eastwest;top=0;left=0;right=0;bottom=1;fontSize=14;fontStyle=0" parent="CeoSVahRU628ZsRBta8_-43" vertex="1">
          <mxGeometry y="30" width="250" height="30" as="geometry" />
        </mxCell>
        <mxCell id="CeoSVahRU628ZsRBta8_-45" value="PK" style="shape=partialRectangle;overflow=hidden;connectable=0;fillColor=none;top=0;left=0;bottom=0;right=0;fontStyle=0;fontSize=14;" parent="CeoSVahRU628ZsRBta8_-44" vertex="1">
          <mxGeometry width="30" height="30" as="geometry">
            <mxRectangle width="30" height="30" as="alternateBounds" />
          </mxGeometry>
        </mxCell>
        <mxCell id="CeoSVahRU628ZsRBta8_-46" value="ID" style="shape=partialRectangle;overflow=hidden;connectable=0;fillColor=none;top=0;left=0;bottom=0;right=0;align=left;spacingLeft=6;fontStyle=4;fontSize=14;" parent="CeoSVahRU628ZsRBta8_-44" vertex="1">
          <mxGeometry x="30" width="220" height="30" as="geometry">
            <mxRectangle width="220" height="30" as="alternateBounds" />
          </mxGeometry>
        </mxCell>
        <mxCell id="CeoSVahRU628ZsRBta8_-47" value="" style="shape=partialRectangle;collapsible=0;dropTarget=0;pointerEvents=0;fillColor=none;points=[[0,0.5],[1,0.5]];portConstraint=eastwest;top=0;left=0;right=0;bottom=0;fontSize=14;fontStyle=0" parent="CeoSVahRU628ZsRBta8_-43" vertex="1">
          <mxGeometry y="60" width="250" height="30" as="geometry" />
        </mxCell>
        <mxCell id="CeoSVahRU628ZsRBta8_-48" value="FK" style="shape=partialRectangle;overflow=hidden;connectable=0;fillColor=none;top=0;left=0;bottom=0;right=0;fontSize=14;fontStyle=0" parent="CeoSVahRU628ZsRBta8_-47" vertex="1">
          <mxGeometry width="30" height="30" as="geometry">
            <mxRectangle width="30" height="30" as="alternateBounds" />
          </mxGeometry>
        </mxCell>
        <mxCell id="CeoSVahRU628ZsRBta8_-49" value="CharacteristicID" style="shape=partialRectangle;overflow=hidden;connectable=0;fillColor=none;top=0;left=0;bottom=0;right=0;align=left;spacingLeft=6;fontSize=14;fontStyle=0" parent="CeoSVahRU628ZsRBta8_-47" vertex="1">
          <mxGeometry x="30" width="220" height="30" as="geometry">
            <mxRectangle width="220" height="30" as="alternateBounds" />
          </mxGeometry>
        </mxCell>
        <mxCell id="CeoSVahRU628ZsRBta8_-50" value="" style="shape=partialRectangle;collapsible=0;dropTarget=0;pointerEvents=0;fillColor=none;points=[[0,0.5],[1,0.5]];portConstraint=eastwest;top=0;left=0;right=0;bottom=0;fontSize=14;fontStyle=0" parent="CeoSVahRU628ZsRBta8_-43" vertex="1">
          <mxGeometry y="90" width="250" height="30" as="geometry" />
        </mxCell>
        <mxCell id="CeoSVahRU628ZsRBta8_-51" value="FK" style="shape=partialRectangle;overflow=hidden;connectable=0;fillColor=none;top=0;left=0;bottom=0;right=0;fontSize=14;fontStyle=0" parent="CeoSVahRU628ZsRBta8_-50" vertex="1">
          <mxGeometry width="30" height="30" as="geometry">
            <mxRectangle width="30" height="30" as="alternateBounds" />
          </mxGeometry>
        </mxCell>
        <mxCell id="CeoSVahRU628ZsRBta8_-52" value="HotelID" style="shape=partialRectangle;overflow=hidden;connectable=0;fillColor=none;top=0;left=0;bottom=0;right=0;align=left;spacingLeft=6;fontSize=14;fontStyle=0" parent="CeoSVahRU628ZsRBta8_-50" vertex="1">
          <mxGeometry x="30" width="220" height="30" as="geometry">
            <mxRectangle width="220" height="30" as="alternateBounds" />
          </mxGeometry>
        </mxCell>
        <mxCell id="CeoSVahRU628ZsRBta8_-53" style="edgeStyle=orthogonalEdgeStyle;rounded=0;orthogonalLoop=1;jettySize=auto;html=1;exitX=0;exitY=0.5;exitDx=0;exitDy=0;entryX=0;entryY=0.5;entryDx=0;entryDy=0;fontSize=12;startSize=8;endSize=8;endArrow=ERone;endFill=0;startArrow=ERoneToMany;startFill=0;fontStyle=0" parent="1" source="CeoSVahRU628ZsRBta8_-47" target="CeoSVahRU628ZsRBta8_-31" edge="1">
          <mxGeometry relative="1" as="geometry" />
        </mxCell>
        <mxCell id="CeoSVahRU628ZsRBta8_-54" style="edgeStyle=orthogonalEdgeStyle;rounded=0;orthogonalLoop=1;jettySize=auto;html=1;exitX=1;exitY=0.5;exitDx=0;exitDy=0;entryX=0;entryY=0.5;entryDx=0;entryDy=0;fontSize=12;startSize=8;endSize=8;endArrow=ERone;endFill=0;startArrow=ERoneToMany;startFill=0;fontStyle=0" parent="1" source="CeoSVahRU628ZsRBta8_-50" target="TQ3iEzF1nXxN9szr9kvA-29" edge="1">
          <mxGeometry relative="1" as="geometry">
            <Array as="points">
              <mxPoint x="684" y="-52" />
              <mxPoint x="684" y="-154" />
            </Array>
          </mxGeometry>
        </mxCell>
        <mxCell id="CeoSVahRU628ZsRBta8_-55" value="NutritionTypes" style="shape=table;startSize=30;container=1;collapsible=1;childLayout=tableLayout;fixedRows=1;rowLines=0;fontStyle=0;align=center;resizeLast=1;fontSize=14;spacing=2;" parent="1" vertex="1">
          <mxGeometry x="400" y="-17" width="250" height="90" as="geometry">
            <mxRectangle x="446" y="-517" width="58" height="30" as="alternateBounds" />
          </mxGeometry>
        </mxCell>
        <mxCell id="CeoSVahRU628ZsRBta8_-56" value="" style="shape=partialRectangle;collapsible=0;dropTarget=0;pointerEvents=0;fillColor=none;points=[[0,0.5],[1,0.5]];portConstraint=eastwest;top=0;left=0;right=0;bottom=1;fontSize=14;fontStyle=0" parent="CeoSVahRU628ZsRBta8_-55" vertex="1">
          <mxGeometry y="30" width="250" height="30" as="geometry" />
        </mxCell>
        <mxCell id="CeoSVahRU628ZsRBta8_-57" value="PK" style="shape=partialRectangle;overflow=hidden;connectable=0;fillColor=none;top=0;left=0;bottom=0;right=0;fontStyle=0;fontSize=14;" parent="CeoSVahRU628ZsRBta8_-56" vertex="1">
          <mxGeometry width="30" height="30" as="geometry">
            <mxRectangle width="30" height="30" as="alternateBounds" />
          </mxGeometry>
        </mxCell>
        <mxCell id="CeoSVahRU628ZsRBta8_-58" value="ID" style="shape=partialRectangle;overflow=hidden;connectable=0;fillColor=none;top=0;left=0;bottom=0;right=0;align=left;spacingLeft=6;fontStyle=4;fontSize=14;" parent="CeoSVahRU628ZsRBta8_-56" vertex="1">
          <mxGeometry x="30" width="220" height="30" as="geometry">
            <mxRectangle width="220" height="30" as="alternateBounds" />
          </mxGeometry>
        </mxCell>
        <mxCell id="CeoSVahRU628ZsRBta8_-59" value="" style="shape=partialRectangle;collapsible=0;dropTarget=0;pointerEvents=0;fillColor=none;points=[[0,0.5],[1,0.5]];portConstraint=eastwest;top=0;left=0;right=0;bottom=0;fontSize=14;fontStyle=0" parent="CeoSVahRU628ZsRBta8_-55" vertex="1">
          <mxGeometry y="60" width="250" height="30" as="geometry" />
        </mxCell>
        <mxCell id="CeoSVahRU628ZsRBta8_-60" value="" style="shape=partialRectangle;overflow=hidden;connectable=0;fillColor=none;top=0;left=0;bottom=0;right=0;fontSize=14;fontStyle=0" parent="CeoSVahRU628ZsRBta8_-59" vertex="1">
          <mxGeometry width="30" height="30" as="geometry">
            <mxRectangle width="30" height="30" as="alternateBounds" />
          </mxGeometry>
        </mxCell>
        <mxCell id="CeoSVahRU628ZsRBta8_-61" value="Name" style="shape=partialRectangle;overflow=hidden;connectable=0;fillColor=none;top=0;left=0;bottom=0;right=0;align=left;spacingLeft=6;fontSize=14;fontStyle=0" parent="CeoSVahRU628ZsRBta8_-59" vertex="1">
          <mxGeometry x="30" width="220" height="30" as="geometry">
            <mxRectangle width="220" height="30" as="alternateBounds" />
          </mxGeometry>
        </mxCell>
        <mxCell id="CeoSVahRU628ZsRBta8_-62" style="edgeStyle=orthogonalEdgeStyle;rounded=0;orthogonalLoop=1;jettySize=auto;html=1;exitX=0;exitY=0.5;exitDx=0;exitDy=0;entryX=0;entryY=0.5;entryDx=0;entryDy=0;fontSize=12;startSize=8;endSize=8;endArrow=ERoneToMany;endFill=0;startArrow=ERone;startFill=0;fontStyle=0" parent="1" source="CeoSVahRU628ZsRBta8_-56" target="CeoSVahRU628ZsRBta8_-8" edge="1">
          <mxGeometry relative="1" as="geometry">
            <Array as="points">
              <mxPoint x="373" y="28" />
              <mxPoint x="373" y="-27" />
              <mxPoint x="703" y="-27" />
              <mxPoint x="703" y="-124" />
            </Array>
          </mxGeometry>
        </mxCell>
        <mxCell id="CeoSVahRU628ZsRBta8_-64" value="RoomTypes" style="shape=table;startSize=30;container=1;collapsible=1;childLayout=tableLayout;fixedRows=1;rowLines=0;fontStyle=0;align=center;resizeLast=1;fontSize=14;spacing=2;" parent="1" vertex="1">
          <mxGeometry x="734" y="-424" width="250" height="210" as="geometry">
            <mxRectangle x="446" y="-517" width="58" height="30" as="alternateBounds" />
          </mxGeometry>
        </mxCell>
        <mxCell id="CeoSVahRU628ZsRBta8_-65" value="" style="shape=partialRectangle;collapsible=0;dropTarget=0;pointerEvents=0;fillColor=none;points=[[0,0.5],[1,0.5]];portConstraint=eastwest;top=0;left=0;right=0;bottom=1;fontSize=14;fontStyle=0" parent="CeoSVahRU628ZsRBta8_-64" vertex="1">
          <mxGeometry y="30" width="250" height="30" as="geometry" />
        </mxCell>
        <mxCell id="CeoSVahRU628ZsRBta8_-66" value="PK" style="shape=partialRectangle;overflow=hidden;connectable=0;fillColor=none;top=0;left=0;bottom=0;right=0;fontStyle=0;fontSize=14;" parent="CeoSVahRU628ZsRBta8_-65" vertex="1">
          <mxGeometry width="30.64003906249991" height="30" as="geometry">
            <mxRectangle width="30.64003906249991" height="30" as="alternateBounds" />
          </mxGeometry>
        </mxCell>
        <mxCell id="CeoSVahRU628ZsRBta8_-67" value="ID" style="shape=partialRectangle;overflow=hidden;connectable=0;fillColor=none;top=0;left=0;bottom=0;right=0;align=left;spacingLeft=6;fontStyle=4;fontSize=14;" parent="CeoSVahRU628ZsRBta8_-65" vertex="1">
          <mxGeometry x="30.64003906249991" width="219.3599609375001" height="30" as="geometry">
            <mxRectangle width="219.3599609375001" height="30" as="alternateBounds" />
          </mxGeometry>
        </mxCell>
        <mxCell id="CeoSVahRU628ZsRBta8_-68" value="" style="shape=partialRectangle;collapsible=0;dropTarget=0;pointerEvents=0;fillColor=none;points=[[0,0.5],[1,0.5]];portConstraint=eastwest;top=0;left=0;right=0;bottom=0;fontSize=14;fontStyle=0" parent="CeoSVahRU628ZsRBta8_-64" vertex="1">
          <mxGeometry y="60" width="250" height="30" as="geometry" />
        </mxCell>
        <mxCell id="CeoSVahRU628ZsRBta8_-69" value="FK" style="shape=partialRectangle;overflow=hidden;connectable=0;fillColor=none;top=0;left=0;bottom=0;right=0;fontSize=14;fontStyle=0" parent="CeoSVahRU628ZsRBta8_-68" vertex="1">
          <mxGeometry width="30.64003906249991" height="30" as="geometry">
            <mxRectangle width="30.64003906249991" height="30" as="alternateBounds" />
          </mxGeometry>
        </mxCell>
        <mxCell id="CeoSVahRU628ZsRBta8_-70" value="HotelId" style="shape=partialRectangle;overflow=hidden;connectable=0;fillColor=none;top=0;left=0;bottom=0;right=0;align=left;spacingLeft=6;fontSize=14;fontStyle=0" parent="CeoSVahRU628ZsRBta8_-68" vertex="1">
          <mxGeometry x="30.64003906249991" width="219.3599609375001" height="30" as="geometry">
            <mxRectangle width="219.3599609375001" height="30" as="alternateBounds" />
          </mxGeometry>
        </mxCell>
        <mxCell id="CeoSVahRU628ZsRBta8_-74" value="" style="shape=partialRectangle;collapsible=0;dropTarget=0;pointerEvents=0;fillColor=none;points=[[0,0.5],[1,0.5]];portConstraint=eastwest;top=0;left=0;right=0;bottom=0;fontSize=14;fontStyle=0" parent="CeoSVahRU628ZsRBta8_-64" vertex="1">
          <mxGeometry y="90" width="250" height="30" as="geometry" />
        </mxCell>
        <mxCell id="CeoSVahRU628ZsRBta8_-75" value="" style="shape=partialRectangle;overflow=hidden;connectable=0;fillColor=none;top=0;left=0;bottom=0;right=0;fontSize=14;fontStyle=0" parent="CeoSVahRU628ZsRBta8_-74" vertex="1">
          <mxGeometry width="30.64003906249991" height="30" as="geometry">
            <mxRectangle width="30.64003906249991" height="30" as="alternateBounds" />
          </mxGeometry>
        </mxCell>
        <mxCell id="CeoSVahRU628ZsRBta8_-76" value="Name" style="shape=partialRectangle;overflow=hidden;connectable=0;fillColor=none;top=0;left=0;bottom=0;right=0;align=left;spacingLeft=6;fontSize=14;fontStyle=0" parent="CeoSVahRU628ZsRBta8_-74" vertex="1">
          <mxGeometry x="30.64003906249991" width="219.3599609375001" height="30" as="geometry">
            <mxRectangle width="219.3599609375001" height="30" as="alternateBounds" />
          </mxGeometry>
        </mxCell>
        <mxCell id="CeoSVahRU628ZsRBta8_-77" value="" style="shape=partialRectangle;collapsible=0;dropTarget=0;pointerEvents=0;fillColor=none;points=[[0,0.5],[1,0.5]];portConstraint=eastwest;top=0;left=0;right=0;bottom=0;fontSize=14;fontStyle=0" parent="CeoSVahRU628ZsRBta8_-64" vertex="1">
          <mxGeometry y="120" width="250" height="30" as="geometry" />
        </mxCell>
        <mxCell id="CeoSVahRU628ZsRBta8_-78" value="" style="shape=partialRectangle;overflow=hidden;connectable=0;fillColor=none;top=0;left=0;bottom=0;right=0;fontSize=14;fontStyle=0" parent="CeoSVahRU628ZsRBta8_-77" vertex="1">
          <mxGeometry width="30.64003906249991" height="30" as="geometry">
            <mxRectangle width="30.64003906249991" height="30" as="alternateBounds" />
          </mxGeometry>
        </mxCell>
        <mxCell id="CeoSVahRU628ZsRBta8_-79" value="Price" style="shape=partialRectangle;overflow=hidden;connectable=0;fillColor=none;top=0;left=0;bottom=0;right=0;align=left;spacingLeft=6;fontSize=14;fontStyle=0" parent="CeoSVahRU628ZsRBta8_-77" vertex="1">
          <mxGeometry x="30.64003906249991" width="219.3599609375001" height="30" as="geometry">
            <mxRectangle width="219.3599609375001" height="30" as="alternateBounds" />
          </mxGeometry>
        </mxCell>
        <mxCell id="CeoSVahRU628ZsRBta8_-80" value="" style="shape=partialRectangle;collapsible=0;dropTarget=0;pointerEvents=0;fillColor=none;points=[[0,0.5],[1,0.5]];portConstraint=eastwest;top=0;left=0;right=0;bottom=0;fontSize=14;fontStyle=0" parent="CeoSVahRU628ZsRBta8_-64" vertex="1">
          <mxGeometry y="150" width="250" height="30" as="geometry" />
        </mxCell>
        <mxCell id="CeoSVahRU628ZsRBta8_-81" value="" style="shape=partialRectangle;overflow=hidden;connectable=0;fillColor=none;top=0;left=0;bottom=0;right=0;fontSize=14;fontStyle=0" parent="CeoSVahRU628ZsRBta8_-80" vertex="1">
          <mxGeometry width="30.64003906249991" height="30" as="geometry">
            <mxRectangle width="30.64003906249991" height="30" as="alternateBounds" />
          </mxGeometry>
        </mxCell>
        <mxCell id="CeoSVahRU628ZsRBta8_-82" value="SeatsNumber" style="shape=partialRectangle;overflow=hidden;connectable=0;fillColor=none;top=0;left=0;bottom=0;right=0;align=left;spacingLeft=6;fontSize=14;fontStyle=0" parent="CeoSVahRU628ZsRBta8_-80" vertex="1">
          <mxGeometry x="30.64003906249991" width="219.3599609375001" height="30" as="geometry">
            <mxRectangle width="219.3599609375001" height="30" as="alternateBounds" />
          </mxGeometry>
        </mxCell>
        <mxCell id="CeoSVahRU628ZsRBta8_-83" value="" style="shape=partialRectangle;collapsible=0;dropTarget=0;pointerEvents=0;fillColor=none;points=[[0,0.5],[1,0.5]];portConstraint=eastwest;top=0;left=0;right=0;bottom=0;fontSize=14;fontStyle=0" parent="CeoSVahRU628ZsRBta8_-64" vertex="1">
          <mxGeometry y="180" width="250" height="30" as="geometry" />
        </mxCell>
        <mxCell id="CeoSVahRU628ZsRBta8_-84" value="" style="shape=partialRectangle;overflow=hidden;connectable=0;fillColor=none;top=0;left=0;bottom=0;right=0;fontSize=14;fontStyle=0" parent="CeoSVahRU628ZsRBta8_-83" vertex="1">
          <mxGeometry width="30.64003906249991" height="30" as="geometry">
            <mxRectangle width="30.64003906249991" height="30" as="alternateBounds" />
          </mxGeometry>
        </mxCell>
        <mxCell id="CeoSVahRU628ZsRBta8_-85" value="RoomsNumber" style="shape=partialRectangle;overflow=hidden;connectable=0;fillColor=none;top=0;left=0;bottom=0;right=0;align=left;spacingLeft=6;fontSize=14;fontStyle=0" parent="CeoSVahRU628ZsRBta8_-83" vertex="1">
          <mxGeometry x="30.64003906249991" width="219.3599609375001" height="30" as="geometry">
            <mxRectangle width="219.3599609375001" height="30" as="alternateBounds" />
          </mxGeometry>
        </mxCell>
        <mxCell id="CeoSVahRU628ZsRBta8_-107" style="edgeStyle=orthogonalEdgeStyle;rounded=0;orthogonalLoop=1;jettySize=auto;html=1;exitX=1;exitY=0.5;exitDx=0;exitDy=0;fontSize=12;startSize=8;endSize=8;endArrow=ERone;endFill=0;startArrow=ERoneToMany;startFill=0;fontStyle=0" parent="1" source="TY1T0JL2RWbXBVbh2Ho9-166" edge="1">
          <mxGeometry relative="1" as="geometry">
            <mxPoint x="442" y="-676" as="targetPoint" />
            <Array as="points">
              <mxPoint x="397" y="-612" />
              <mxPoint x="397" y="-676" />
            </Array>
          </mxGeometry>
        </mxCell>
        <mxCell id="CeoSVahRU628ZsRBta8_-113" value="RoomTypeCharacteristics" style="shape=table;startSize=30;container=1;collapsible=1;childLayout=tableLayout;fixedRows=1;rowLines=0;fontStyle=0;align=center;resizeLast=1;fontSize=14;spacing=2;" parent="1" vertex="1">
          <mxGeometry x="734" y="-663" width="250" height="90" as="geometry" />
        </mxCell>
        <mxCell id="CeoSVahRU628ZsRBta8_-114" value="" style="shape=partialRectangle;collapsible=0;dropTarget=0;pointerEvents=0;fillColor=none;points=[[0,0.5],[1,0.5]];portConstraint=eastwest;top=0;left=0;right=0;bottom=1;fontSize=14;fontStyle=0" parent="CeoSVahRU628ZsRBta8_-113" vertex="1">
          <mxGeometry y="30" width="250" height="30" as="geometry" />
        </mxCell>
        <mxCell id="CeoSVahRU628ZsRBta8_-115" value="PK" style="shape=partialRectangle;overflow=hidden;connectable=0;fillColor=none;top=0;left=0;bottom=0;right=0;fontStyle=0;fontSize=14;" parent="CeoSVahRU628ZsRBta8_-114" vertex="1">
          <mxGeometry width="30" height="30" as="geometry">
            <mxRectangle width="30" height="30" as="alternateBounds" />
          </mxGeometry>
        </mxCell>
        <mxCell id="CeoSVahRU628ZsRBta8_-116" value="ID" style="shape=partialRectangle;overflow=hidden;connectable=0;fillColor=none;top=0;left=0;bottom=0;right=0;align=left;spacingLeft=6;fontStyle=4;fontSize=14;" parent="CeoSVahRU628ZsRBta8_-114" vertex="1">
          <mxGeometry x="30" width="220" height="30" as="geometry">
            <mxRectangle width="220" height="30" as="alternateBounds" />
          </mxGeometry>
        </mxCell>
        <mxCell id="CeoSVahRU628ZsRBta8_-117" value="" style="shape=partialRectangle;collapsible=0;dropTarget=0;pointerEvents=0;fillColor=none;points=[[0,0.5],[1,0.5]];portConstraint=eastwest;top=0;left=0;right=0;bottom=0;fontSize=14;fontStyle=0" parent="CeoSVahRU628ZsRBta8_-113" vertex="1">
          <mxGeometry y="60" width="250" height="30" as="geometry" />
        </mxCell>
        <mxCell id="CeoSVahRU628ZsRBta8_-118" value="" style="shape=partialRectangle;overflow=hidden;connectable=0;fillColor=none;top=0;left=0;bottom=0;right=0;fontSize=14;fontStyle=0" parent="CeoSVahRU628ZsRBta8_-117" vertex="1">
          <mxGeometry width="30" height="30" as="geometry">
            <mxRectangle width="30" height="30" as="alternateBounds" />
          </mxGeometry>
        </mxCell>
        <mxCell id="CeoSVahRU628ZsRBta8_-119" value="Name" style="shape=partialRectangle;overflow=hidden;connectable=0;fillColor=none;top=0;left=0;bottom=0;right=0;align=left;spacingLeft=6;fontSize=14;fontStyle=0" parent="CeoSVahRU628ZsRBta8_-117" vertex="1">
          <mxGeometry x="30" width="220" height="30" as="geometry">
            <mxRectangle width="220" height="30" as="alternateBounds" />
          </mxGeometry>
        </mxCell>
        <mxCell id="CeoSVahRU628ZsRBta8_-120" value="RoomTypeDescriptions" style="shape=table;startSize=30;container=1;collapsible=1;childLayout=tableLayout;fixedRows=1;rowLines=0;fontStyle=0;align=center;resizeLast=1;fontSize=14;spacing=2;" parent="1" vertex="1">
          <mxGeometry x="734" y="-562" width="250" height="120" as="geometry" />
        </mxCell>
        <mxCell id="CeoSVahRU628ZsRBta8_-121" value="" style="shape=partialRectangle;collapsible=0;dropTarget=0;pointerEvents=0;fillColor=none;points=[[0,0.5],[1,0.5]];portConstraint=eastwest;top=0;left=0;right=0;bottom=1;fontSize=14;fontStyle=0" parent="CeoSVahRU628ZsRBta8_-120" vertex="1">
          <mxGeometry y="30" width="250" height="30" as="geometry" />
        </mxCell>
        <mxCell id="CeoSVahRU628ZsRBta8_-122" value="PK" style="shape=partialRectangle;overflow=hidden;connectable=0;fillColor=none;top=0;left=0;bottom=0;right=0;fontStyle=0;fontSize=14;" parent="CeoSVahRU628ZsRBta8_-121" vertex="1">
          <mxGeometry width="30" height="30" as="geometry">
            <mxRectangle width="30" height="30" as="alternateBounds" />
          </mxGeometry>
        </mxCell>
        <mxCell id="CeoSVahRU628ZsRBta8_-123" value="ID" style="shape=partialRectangle;overflow=hidden;connectable=0;fillColor=none;top=0;left=0;bottom=0;right=0;align=left;spacingLeft=6;fontStyle=4;fontSize=14;" parent="CeoSVahRU628ZsRBta8_-121" vertex="1">
          <mxGeometry x="30" width="220" height="30" as="geometry">
            <mxRectangle width="220" height="30" as="alternateBounds" />
          </mxGeometry>
        </mxCell>
        <mxCell id="CeoSVahRU628ZsRBta8_-124" value="" style="shape=partialRectangle;collapsible=0;dropTarget=0;pointerEvents=0;fillColor=none;points=[[0,0.5],[1,0.5]];portConstraint=eastwest;top=0;left=0;right=0;bottom=0;fontSize=14;fontStyle=0" parent="CeoSVahRU628ZsRBta8_-120" vertex="1">
          <mxGeometry y="60" width="250" height="30" as="geometry" />
        </mxCell>
        <mxCell id="CeoSVahRU628ZsRBta8_-125" value="FK" style="shape=partialRectangle;overflow=hidden;connectable=0;fillColor=none;top=0;left=0;bottom=0;right=0;fontSize=14;fontStyle=0" parent="CeoSVahRU628ZsRBta8_-124" vertex="1">
          <mxGeometry width="30" height="30" as="geometry">
            <mxRectangle width="30" height="30" as="alternateBounds" />
          </mxGeometry>
        </mxCell>
        <mxCell id="CeoSVahRU628ZsRBta8_-126" value="CharacteristicID" style="shape=partialRectangle;overflow=hidden;connectable=0;fillColor=none;top=0;left=0;bottom=0;right=0;align=left;spacingLeft=6;fontSize=14;fontStyle=0" parent="CeoSVahRU628ZsRBta8_-124" vertex="1">
          <mxGeometry x="30" width="220" height="30" as="geometry">
            <mxRectangle width="220" height="30" as="alternateBounds" />
          </mxGeometry>
        </mxCell>
        <mxCell id="CeoSVahRU628ZsRBta8_-127" value="" style="shape=partialRectangle;collapsible=0;dropTarget=0;pointerEvents=0;fillColor=none;points=[[0,0.5],[1,0.5]];portConstraint=eastwest;top=0;left=0;right=0;bottom=0;fontSize=14;fontStyle=0" parent="CeoSVahRU628ZsRBta8_-120" vertex="1">
          <mxGeometry y="90" width="250" height="30" as="geometry" />
        </mxCell>
        <mxCell id="CeoSVahRU628ZsRBta8_-128" value="FK" style="shape=partialRectangle;overflow=hidden;connectable=0;fillColor=none;top=0;left=0;bottom=0;right=0;fontSize=14;fontStyle=0" parent="CeoSVahRU628ZsRBta8_-127" vertex="1">
          <mxGeometry width="30" height="30" as="geometry">
            <mxRectangle width="30" height="30" as="alternateBounds" />
          </mxGeometry>
        </mxCell>
        <mxCell id="CeoSVahRU628ZsRBta8_-129" value="RoomTypeID" style="shape=partialRectangle;overflow=hidden;connectable=0;fillColor=none;top=0;left=0;bottom=0;right=0;align=left;spacingLeft=6;fontSize=14;fontStyle=0" parent="CeoSVahRU628ZsRBta8_-127" vertex="1">
          <mxGeometry x="30" width="220" height="30" as="geometry">
            <mxRectangle width="220" height="30" as="alternateBounds" />
          </mxGeometry>
        </mxCell>
        <mxCell id="CeoSVahRU628ZsRBta8_-130" style="edgeStyle=orthogonalEdgeStyle;rounded=0;orthogonalLoop=1;jettySize=auto;html=1;exitX=0;exitY=0.5;exitDx=0;exitDy=0;entryX=0;entryY=0.5;entryDx=0;entryDy=0;fontSize=12;startSize=8;endSize=8;endArrow=ERoneToMany;endFill=0;startArrow=ERone;startFill=0;fontStyle=0" parent="1" source="CeoSVahRU628ZsRBta8_-114" target="CeoSVahRU628ZsRBta8_-124" edge="1">
          <mxGeometry relative="1" as="geometry" />
        </mxCell>
        <mxCell id="CeoSVahRU628ZsRBta8_-131" style="edgeStyle=orthogonalEdgeStyle;rounded=0;orthogonalLoop=1;jettySize=auto;html=1;exitX=0;exitY=0.5;exitDx=0;exitDy=0;entryX=0;entryY=0.5;entryDx=0;entryDy=0;fontSize=12;startSize=8;endSize=8;startArrow=ERoneToMany;startFill=0;endArrow=ERone;endFill=0;fontStyle=0" parent="1" source="CeoSVahRU628ZsRBta8_-127" target="CeoSVahRU628ZsRBta8_-65" edge="1">
          <mxGeometry relative="1" as="geometry" />
        </mxCell>
        <mxCell id="CeoSVahRU628ZsRBta8_-132" style="edgeStyle=orthogonalEdgeStyle;rounded=0;orthogonalLoop=1;jettySize=auto;html=1;entryX=0;entryY=0.5;entryDx=0;entryDy=0;fontSize=12;startSize=8;endSize=8;endArrow=ERone;endFill=0;startArrow=ERoneToMany;startFill=0;exitX=0;exitY=0.5;exitDx=0;exitDy=0;fontStyle=0" parent="1" source="TQ3iEzF1nXxN9szr9kvA-120" target="TQ3iEzF1nXxN9szr9kvA-103" edge="1">
          <mxGeometry relative="1" as="geometry">
            <mxPoint x="1101" y="-612" as="sourcePoint" />
            <Array as="points">
              <mxPoint x="1068" y="-612" />
              <mxPoint x="1068" y="-346" />
            </Array>
          </mxGeometry>
        </mxCell>
        <mxCell id="CeoSVahRU628ZsRBta8_-145" style="edgeStyle=orthogonalEdgeStyle;rounded=0;orthogonalLoop=1;jettySize=auto;html=1;exitX=0;exitY=0.5;exitDx=0;exitDy=0;entryX=0;entryY=0.5;entryDx=0;entryDy=0;fontSize=12;startSize=8;endSize=8;startArrow=ERone;startFill=0;endArrow=ERoneToMany;endFill=0;fontStyle=0" parent="1" source="TQ3iEzF1nXxN9szr9kvA-160" target="TQ3iEzF1nXxN9szr9kvA-106" edge="1">
          <mxGeometry relative="1" as="geometry" />
        </mxCell>
        <mxCell id="CeoSVahRU628ZsRBta8_-147" style="edgeStyle=orthogonalEdgeStyle;rounded=0;orthogonalLoop=1;jettySize=auto;html=1;exitX=0;exitY=0.5;exitDx=0;exitDy=0;fontSize=12;startSize=8;endSize=8;startArrow=ERone;startFill=0;endArrow=ERoneToMany;endFill=0;entryX=0;entryY=0.5;entryDx=0;entryDy=0;fontStyle=0" parent="1" source="TQ3iEzF1nXxN9szr9kvA-43" target="CeoSVahRU628ZsRBta8_-133" edge="1">
          <mxGeometry relative="1" as="geometry">
            <mxPoint x="1076" y="-156" as="targetPoint" />
            <Array as="points">
              <mxPoint x="379" y="143" />
              <mxPoint x="379" y="84" />
              <mxPoint x="720" y="84" />
              <mxPoint x="720" y="113" />
              <mxPoint x="1069" y="113" />
              <mxPoint x="1069" y="-316" />
            </Array>
          </mxGeometry>
        </mxCell>
        <mxCell id="CeoSVahRU628ZsRBta8_-148" style="edgeStyle=orthogonalEdgeStyle;rounded=0;orthogonalLoop=1;jettySize=auto;html=1;exitX=0;exitY=0.5;exitDx=0;exitDy=0;entryX=0;entryY=0.5;entryDx=0;entryDy=0;fontSize=12;startSize=8;endSize=8;endArrow=ERone;endFill=0;startArrow=ERoneToMany;startFill=0;fontStyle=0" parent="1" source="CeoSVahRU628ZsRBta8_-68" target="TQ3iEzF1nXxN9szr9kvA-29" edge="1">
          <mxGeometry relative="1" as="geometry" />
        </mxCell>
        <mxCell id="CeoSVahRU628ZsRBta8_-149" style="edgeStyle=orthogonalEdgeStyle;rounded=0;orthogonalLoop=1;jettySize=auto;html=1;exitX=0;exitY=0.5;exitDx=0;exitDy=0;fontSize=12;startSize=8;endSize=8;endArrow=ERone;endFill=0;startArrow=ERoneToMany;startFill=0;fontStyle=0" parent="1" source="TQ3iEzF1nXxN9szr9kvA-117" edge="1">
          <mxGeometry relative="1" as="geometry">
            <Array as="points">
              <mxPoint x="1031" y="-642" />
              <mxPoint x="1031" y="-726" />
              <mxPoint x="420" y="-726" />
              <mxPoint x="420" y="-676" />
            </Array>
            <mxPoint x="442" y="-676" as="targetPoint" />
          </mxGeometry>
        </mxCell>
        <mxCell id="CeoSVahRU628ZsRBta8_-150" value="BookedRoomTypes" style="shape=table;startSize=30;container=1;collapsible=1;childLayout=tableLayout;fixedRows=1;rowLines=0;fontStyle=0;align=center;resizeLast=1;fontSize=14;spacing=2;" parent="1" vertex="1">
          <mxGeometry x="442" y="-529" width="250" height="150" as="geometry" />
        </mxCell>
        <mxCell id="CeoSVahRU628ZsRBta8_-151" value="" style="shape=partialRectangle;collapsible=0;dropTarget=0;pointerEvents=0;fillColor=none;points=[[0,0.5],[1,0.5]];portConstraint=eastwest;top=0;left=0;right=0;bottom=1;fontSize=14;fontStyle=0" parent="CeoSVahRU628ZsRBta8_-150" vertex="1">
          <mxGeometry y="30" width="250" height="30" as="geometry" />
        </mxCell>
        <mxCell id="CeoSVahRU628ZsRBta8_-152" value="PK" style="shape=partialRectangle;overflow=hidden;connectable=0;fillColor=none;top=0;left=0;bottom=0;right=0;fontStyle=0;fontSize=14;" parent="CeoSVahRU628ZsRBta8_-151" vertex="1">
          <mxGeometry width="30" height="30" as="geometry">
            <mxRectangle width="30" height="30" as="alternateBounds" />
          </mxGeometry>
        </mxCell>
        <mxCell id="CeoSVahRU628ZsRBta8_-153" value="ID" style="shape=partialRectangle;overflow=hidden;connectable=0;fillColor=none;top=0;left=0;bottom=0;right=0;align=left;spacingLeft=6;fontStyle=4;fontSize=14;" parent="CeoSVahRU628ZsRBta8_-151" vertex="1">
          <mxGeometry x="30" width="220" height="30" as="geometry">
            <mxRectangle width="220" height="30" as="alternateBounds" />
          </mxGeometry>
        </mxCell>
        <mxCell id="CeoSVahRU628ZsRBta8_-154" value="" style="shape=partialRectangle;collapsible=0;dropTarget=0;pointerEvents=0;fillColor=none;points=[[0,0.5],[1,0.5]];portConstraint=eastwest;top=0;left=0;right=0;bottom=0;fontSize=14;fontStyle=0" parent="CeoSVahRU628ZsRBta8_-150" vertex="1">
          <mxGeometry y="60" width="250" height="30" as="geometry" />
        </mxCell>
        <mxCell id="CeoSVahRU628ZsRBta8_-155" value="FK" style="shape=partialRectangle;overflow=hidden;connectable=0;fillColor=none;top=0;left=0;bottom=0;right=0;fontSize=14;fontStyle=0" parent="CeoSVahRU628ZsRBta8_-154" vertex="1">
          <mxGeometry width="30" height="30" as="geometry">
            <mxRectangle width="30" height="30" as="alternateBounds" />
          </mxGeometry>
        </mxCell>
        <mxCell id="CeoSVahRU628ZsRBta8_-156" value="RoomTypeID" style="shape=partialRectangle;overflow=hidden;connectable=0;fillColor=none;top=0;left=0;bottom=0;right=0;align=left;spacingLeft=6;fontSize=14;fontStyle=0" parent="CeoSVahRU628ZsRBta8_-154" vertex="1">
          <mxGeometry x="30" width="220" height="30" as="geometry">
            <mxRectangle width="220" height="30" as="alternateBounds" />
          </mxGeometry>
        </mxCell>
        <mxCell id="CeoSVahRU628ZsRBta8_-157" value="" style="shape=partialRectangle;collapsible=0;dropTarget=0;pointerEvents=0;fillColor=none;points=[[0,0.5],[1,0.5]];portConstraint=eastwest;top=0;left=0;right=0;bottom=0;fontSize=14;fontStyle=0" parent="CeoSVahRU628ZsRBta8_-150" vertex="1">
          <mxGeometry y="90" width="250" height="30" as="geometry" />
        </mxCell>
        <mxCell id="CeoSVahRU628ZsRBta8_-158" value="FK" style="shape=partialRectangle;overflow=hidden;connectable=0;fillColor=none;top=0;left=0;bottom=0;right=0;fontSize=14;fontStyle=0" parent="CeoSVahRU628ZsRBta8_-157" vertex="1">
          <mxGeometry width="30" height="30" as="geometry">
            <mxRectangle width="30" height="30" as="alternateBounds" />
          </mxGeometry>
        </mxCell>
        <mxCell id="CeoSVahRU628ZsRBta8_-159" value="BookingID" style="shape=partialRectangle;overflow=hidden;connectable=0;fillColor=none;top=0;left=0;bottom=0;right=0;align=left;spacingLeft=6;fontSize=14;fontStyle=0" parent="CeoSVahRU628ZsRBta8_-157" vertex="1">
          <mxGeometry x="30" width="220" height="30" as="geometry">
            <mxRectangle width="220" height="30" as="alternateBounds" />
          </mxGeometry>
        </mxCell>
        <mxCell id="CeoSVahRU628ZsRBta8_-160" value="" style="shape=partialRectangle;collapsible=0;dropTarget=0;pointerEvents=0;fillColor=none;points=[[0,0.5],[1,0.5]];portConstraint=eastwest;top=0;left=0;right=0;bottom=0;fontSize=14;fontStyle=0" parent="CeoSVahRU628ZsRBta8_-150" vertex="1">
          <mxGeometry y="120" width="250" height="30" as="geometry" />
        </mxCell>
        <mxCell id="CeoSVahRU628ZsRBta8_-161" value="" style="shape=partialRectangle;overflow=hidden;connectable=0;fillColor=none;top=0;left=0;bottom=0;right=0;fontSize=14;fontStyle=0" parent="CeoSVahRU628ZsRBta8_-160" vertex="1">
          <mxGeometry width="30" height="30" as="geometry">
            <mxRectangle width="30" height="30" as="alternateBounds" />
          </mxGeometry>
        </mxCell>
        <mxCell id="CeoSVahRU628ZsRBta8_-162" value="OrderRoomsNumber" style="shape=partialRectangle;overflow=hidden;connectable=0;fillColor=none;top=0;left=0;bottom=0;right=0;align=left;spacingLeft=6;fontSize=14;fontStyle=0" parent="CeoSVahRU628ZsRBta8_-160" vertex="1">
          <mxGeometry x="30" width="220" height="30" as="geometry">
            <mxRectangle width="220" height="30" as="alternateBounds" />
          </mxGeometry>
        </mxCell>
        <mxCell id="CeoSVahRU628ZsRBta8_-163" style="edgeStyle=orthogonalEdgeStyle;rounded=0;orthogonalLoop=1;jettySize=auto;html=1;entryX=0;entryY=0.5;entryDx=0;entryDy=0;fontSize=12;startSize=8;endSize=8;exitX=0;exitY=0.5;exitDx=0;exitDy=0;startArrow=ERoneToMany;startFill=0;endArrow=ERone;endFill=0;fontStyle=0" parent="1" source="CeoSVahRU628ZsRBta8_-157" target="TY1T0JL2RWbXBVbh2Ho9-109" edge="1">
          <mxGeometry relative="1" as="geometry">
            <Array as="points">
              <mxPoint x="426" y="-424" />
              <mxPoint x="426" y="-259" />
              <mxPoint x="69" y="-259" />
              <mxPoint x="69" y="-201" />
            </Array>
          </mxGeometry>
        </mxCell>
        <mxCell id="QpW0727UNLBQQFXdd8Zh-11" value="Climates" style="shape=table;startSize=30;container=1;collapsible=1;childLayout=tableLayout;fixedRows=1;rowLines=0;fontStyle=0;align=center;resizeLast=1;fontSize=14;spacing=2;" parent="1" vertex="1">
          <mxGeometry x="788" y="188" width="250" height="90" as="geometry">
            <mxRectangle x="446" y="-517" width="58" height="30" as="alternateBounds" />
          </mxGeometry>
        </mxCell>
        <mxCell id="QpW0727UNLBQQFXdd8Zh-12" value="" style="shape=partialRectangle;collapsible=0;dropTarget=0;pointerEvents=0;fillColor=none;points=[[0,0.5],[1,0.5]];portConstraint=eastwest;top=0;left=0;right=0;bottom=1;fontSize=14;fontStyle=0" parent="QpW0727UNLBQQFXdd8Zh-11" vertex="1">
          <mxGeometry y="30" width="250" height="30" as="geometry" />
        </mxCell>
        <mxCell id="QpW0727UNLBQQFXdd8Zh-13" value="PK" style="shape=partialRectangle;overflow=hidden;connectable=0;fillColor=none;top=0;left=0;bottom=0;right=0;fontStyle=0;fontSize=14;" parent="QpW0727UNLBQQFXdd8Zh-12" vertex="1">
          <mxGeometry width="30" height="30" as="geometry">
            <mxRectangle width="30" height="30" as="alternateBounds" />
          </mxGeometry>
        </mxCell>
        <mxCell id="QpW0727UNLBQQFXdd8Zh-14" value="ID" style="shape=partialRectangle;overflow=hidden;connectable=0;fillColor=none;top=0;left=0;bottom=0;right=0;align=left;spacingLeft=6;fontStyle=4;fontSize=14;" parent="QpW0727UNLBQQFXdd8Zh-12" vertex="1">
          <mxGeometry x="30" width="220" height="30" as="geometry">
            <mxRectangle width="220" height="30" as="alternateBounds" />
          </mxGeometry>
        </mxCell>
        <mxCell id="QpW0727UNLBQQFXdd8Zh-15" value="" style="shape=partialRectangle;collapsible=0;dropTarget=0;pointerEvents=0;fillColor=none;points=[[0,0.5],[1,0.5]];portConstraint=eastwest;top=0;left=0;right=0;bottom=0;fontSize=14;fontStyle=0" parent="QpW0727UNLBQQFXdd8Zh-11" vertex="1">
          <mxGeometry y="60" width="250" height="30" as="geometry" />
        </mxCell>
        <mxCell id="QpW0727UNLBQQFXdd8Zh-16" value="" style="shape=partialRectangle;overflow=hidden;connectable=0;fillColor=none;top=0;left=0;bottom=0;right=0;fontSize=14;fontStyle=0" parent="QpW0727UNLBQQFXdd8Zh-15" vertex="1">
          <mxGeometry width="30" height="30" as="geometry">
            <mxRectangle width="30" height="30" as="alternateBounds" />
          </mxGeometry>
        </mxCell>
        <mxCell id="QpW0727UNLBQQFXdd8Zh-17" value="Name" style="shape=partialRectangle;overflow=hidden;connectable=0;fillColor=none;top=0;left=0;bottom=0;right=0;align=left;spacingLeft=6;fontSize=14;fontStyle=0" parent="QpW0727UNLBQQFXdd8Zh-15" vertex="1">
          <mxGeometry x="30" width="220" height="30" as="geometry">
            <mxRectangle width="220" height="30" as="alternateBounds" />
          </mxGeometry>
        </mxCell>
        <mxCell id="QpW0727UNLBQQFXdd8Zh-33" style="edgeStyle=orthogonalEdgeStyle;rounded=0;orthogonalLoop=1;jettySize=auto;html=1;entryX=0;entryY=0.5;entryDx=0;entryDy=0;fontSize=12;startSize=8;endSize=8;startArrow=ERoneToMany;startFill=0;endArrow=ERone;endFill=0;fontStyle=0" parent="1" source="QpW0727UNLBQQFXdd8Zh-21" target="QpW0727UNLBQQFXdd8Zh-12" edge="1">
          <mxGeometry relative="1" as="geometry" />
        </mxCell>
        <mxCell id="QpW0727UNLBQQFXdd8Zh-34" value="Landmarks" style="shape=table;startSize=30;container=1;collapsible=1;childLayout=tableLayout;fixedRows=1;rowLines=0;fontStyle=0;align=center;resizeLast=1;fontSize=14;spacing=2;" parent="1" vertex="1">
          <mxGeometry x="91" y="68" width="250" height="120" as="geometry">
            <mxRectangle x="446" y="-517" width="58" height="30" as="alternateBounds" />
          </mxGeometry>
        </mxCell>
        <mxCell id="QpW0727UNLBQQFXdd8Zh-35" value="" style="shape=partialRectangle;collapsible=0;dropTarget=0;pointerEvents=0;fillColor=none;points=[[0,0.5],[1,0.5]];portConstraint=eastwest;top=0;left=0;right=0;bottom=1;fontSize=14;fontStyle=0" parent="QpW0727UNLBQQFXdd8Zh-34" vertex="1">
          <mxGeometry y="30" width="250" height="30" as="geometry" />
        </mxCell>
        <mxCell id="QpW0727UNLBQQFXdd8Zh-36" value="PK" style="shape=partialRectangle;overflow=hidden;connectable=0;fillColor=none;top=0;left=0;bottom=0;right=0;fontStyle=0;fontSize=14;" parent="QpW0727UNLBQQFXdd8Zh-35" vertex="1">
          <mxGeometry width="30" height="30" as="geometry">
            <mxRectangle width="30" height="30" as="alternateBounds" />
          </mxGeometry>
        </mxCell>
        <mxCell id="QpW0727UNLBQQFXdd8Zh-37" value="ID" style="shape=partialRectangle;overflow=hidden;connectable=0;fillColor=none;top=0;left=0;bottom=0;right=0;align=left;spacingLeft=6;fontStyle=4;fontSize=14;" parent="QpW0727UNLBQQFXdd8Zh-35" vertex="1">
          <mxGeometry x="30" width="220" height="30" as="geometry">
            <mxRectangle width="220" height="30" as="alternateBounds" />
          </mxGeometry>
        </mxCell>
        <mxCell id="QpW0727UNLBQQFXdd8Zh-41" value="" style="shape=partialRectangle;collapsible=0;dropTarget=0;pointerEvents=0;fillColor=none;points=[[0,0.5],[1,0.5]];portConstraint=eastwest;top=0;left=0;right=0;bottom=0;fontSize=14;fontStyle=0" parent="QpW0727UNLBQQFXdd8Zh-34" vertex="1">
          <mxGeometry y="60" width="250" height="30" as="geometry" />
        </mxCell>
        <mxCell id="QpW0727UNLBQQFXdd8Zh-42" value="FK" style="shape=partialRectangle;overflow=hidden;connectable=0;fillColor=none;top=0;left=0;bottom=0;right=0;fontSize=14;fontStyle=0" parent="QpW0727UNLBQQFXdd8Zh-41" vertex="1">
          <mxGeometry width="30" height="30" as="geometry">
            <mxRectangle width="30" height="30" as="alternateBounds" />
          </mxGeometry>
        </mxCell>
        <mxCell id="QpW0727UNLBQQFXdd8Zh-43" value="CityId" style="shape=partialRectangle;overflow=hidden;connectable=0;fillColor=none;top=0;left=0;bottom=0;right=0;align=left;spacingLeft=6;fontSize=14;fontStyle=0" parent="QpW0727UNLBQQFXdd8Zh-41" vertex="1">
          <mxGeometry x="30" width="220" height="30" as="geometry">
            <mxRectangle width="220" height="30" as="alternateBounds" />
          </mxGeometry>
        </mxCell>
        <mxCell id="QpW0727UNLBQQFXdd8Zh-38" value="" style="shape=partialRectangle;collapsible=0;dropTarget=0;pointerEvents=0;fillColor=none;points=[[0,0.5],[1,0.5]];portConstraint=eastwest;top=0;left=0;right=0;bottom=0;fontSize=14;fontStyle=0" parent="QpW0727UNLBQQFXdd8Zh-34" vertex="1">
          <mxGeometry y="90" width="250" height="30" as="geometry" />
        </mxCell>
        <mxCell id="QpW0727UNLBQQFXdd8Zh-39" value="" style="shape=partialRectangle;overflow=hidden;connectable=0;fillColor=none;top=0;left=0;bottom=0;right=0;fontSize=14;fontStyle=0" parent="QpW0727UNLBQQFXdd8Zh-38" vertex="1">
          <mxGeometry width="30" height="30" as="geometry">
            <mxRectangle width="30" height="30" as="alternateBounds" />
          </mxGeometry>
        </mxCell>
        <mxCell id="QpW0727UNLBQQFXdd8Zh-40" value="Name" style="shape=partialRectangle;overflow=hidden;connectable=0;fillColor=none;top=0;left=0;bottom=0;right=0;align=left;spacingLeft=6;fontSize=14;fontStyle=0" parent="QpW0727UNLBQQFXdd8Zh-38" vertex="1">
          <mxGeometry x="30" width="220" height="30" as="geometry">
            <mxRectangle width="220" height="30" as="alternateBounds" />
          </mxGeometry>
        </mxCell>
        <mxCell id="QpW0727UNLBQQFXdd8Zh-45" style="edgeStyle=orthogonalEdgeStyle;rounded=0;orthogonalLoop=1;jettySize=auto;html=1;exitX=1;exitY=0.5;exitDx=0;exitDy=0;entryX=0;entryY=0.5;entryDx=0;entryDy=0;fontSize=12;startSize=8;endSize=8;startArrow=ERoneToMany;startFill=0;endArrow=ERone;endFill=0;fontStyle=0" parent="1" source="QpW0727UNLBQQFXdd8Zh-41" target="TQ3iEzF1nXxN9szr9kvA-43" edge="1">
          <mxGeometry relative="1" as="geometry" />
        </mxCell>
        <mxCell id="zLpJMcmyvQ2VqlF03niJ-1" style="edgeStyle=orthogonalEdgeStyle;rounded=0;orthogonalLoop=1;jettySize=auto;html=1;entryX=0;entryY=0.5;entryDx=0;entryDy=0;fontSize=12;startSize=8;endSize=8;exitX=1;exitY=0.5;exitDx=0;exitDy=0;endArrow=ERone;endFill=0;" parent="1" source="CeoSVahRU628ZsRBta8_-154" target="CeoSVahRU628ZsRBta8_-65" edge="1">
          <mxGeometry relative="1" as="geometry">
            <Array as="points">
              <mxPoint x="703" y="-454" />
              <mxPoint x="703" y="-379" />
            </Array>
          </mxGeometry>
        </mxCell>
      </root>
    </mxGraphModel>
  </diagram>
  <diagram id="tUGTNEnj9Vq9UUosrgB5" name="Страница — 2">
    <mxGraphModel dx="1249" dy="600" grid="0" gridSize="10" guides="1" tooltips="1" connect="1" arrows="1" fold="1" page="0" pageScale="1" pageWidth="827" pageHeight="1169" math="0" shadow="0">
      <root>
        <mxCell id="0" />
        <mxCell id="1" parent="0" />
      </root>
    </mxGraphModel>
  </diagram>
</mxfile>
